<?xml version="1.0" encoding="UTF-8"?>
<svg version="1.1" xmlns="http://www.w3.org/2000/svg" width="410" height="430">
<path d="M0 0 C0.68707031 0.1134375 1.37414062 0.226875 2.08203125 0.34375 C7.7425525 1.34663622 12.5711366 3.23486272 17 7 C17 7.66 17 8.32 17 9 C17.556875 9.185625 18.11375 9.37125 18.6875 9.5625 C23.88371816 12.79258156 26.50245647 18.21707522 28 24 C28.32627756 27.27507429 28.37008656 30.52295332 28.375 33.8125 C28.39949219 34.66392578 28.42398438 35.51535156 28.44921875 36.39257812 C28.48885152 45.06555023 25.32881623 52.19095704 20 59 C17.43412589 61.45705356 14.73204599 63.73075962 12 66 C1.29866877 74.96873474 -6.89568359 83.48568012 -8.94140625 97.76953125 C-9.06676976 104.6812397 -6.8849903 111.95979984 -2.75 117.5625 C2.99287595 122.65277641 9.24778161 125.30323303 17 125 C23.13666876 124.03479548 27.0965516 121.7806645 30.84765625 116.82421875 C33.85517341 112.06316617 34.58538392 107.56114726 34 102 C32.61525096 98.36971197 30.71661751 95.6170873 27.75 93.0625 C22.9781021 91.21881217 18.9040112 91.39233685 14.0625 92.9375 C11.27571473 95.72428527 11.07817404 97.98062009 10.87109375 101.83984375 C10.88589747 104.11999921 10.88589747 104.11999921 12.0625 106.5 C14.65268502 108.50530453 16.76653894 108.7891221 20 109 C20.33 108.67 20.66 108.34 21 108 C20.38125 107.87625 19.7625 107.7525 19.125 107.625 C17 107 17 107 15 105 C14.75 101.5 14.75 101.5 15 98 C17 96 17 96 20.375 95.6875 C24.22968763 96.01980066 25.37896609 96.26451046 28 99 C28.390625 101.91796875 28.390625 101.91796875 28.25 105.1875 C28.21390625 106.27417969 28.1778125 107.36085938 28.140625 108.48046875 C28.09421875 109.31191406 28.0478125 110.14335937 28 111 C27.34 111 26.68 111 26 111 C25.505 112.485 25.505 112.485 25 114 C22.0671334 116.22897862 18.792906 116.53749117 15.16015625 116.44921875 C10.03098136 115.38257298 6.37369609 111.5454081 3 107.75 C1.04210005 102.36577512 1.26700186 97.04467901 3.1875 91.6875 C6.34603346 87.00415728 10.66080278 81.89726728 16.296875 80.3828125 C25.01810243 79.46625038 31.06673971 81.57397021 38 87 C42.87554874 91.56561166 45.79057931 96.38375743 47 103 C46.8125 106.375 46.8125 106.375 46 110 C45.92007813 110.845625 45.84015625 111.69125 45.7578125 112.5625 C44.86307725 120.41871194 41.97911399 124.88641499 36 130 C26.88713176 136.62495569 18.23786609 139.07161584 7 138 C-2.29666441 136.20478204 -8.83948747 131.02376906 -15 124 C-17.36051436 120.46867051 -19.28785452 116.88364706 -21 113 C-21.3609375 112.19304687 -21.721875 111.38609375 -22.09375 110.5546875 C-23.11713524 107.6697998 -23.54269973 104.97182208 -23.9375 101.9375 C-25.81307194 88.64358455 -25.81307194 88.64358455 -32 77 C-32 76.34 -32 75.68 -32 75 C-32.66 75 -33.32 75 -34 75 C-35.37073786 73.36395804 -36.70055256 71.69321939 -38 70 C-42.66298731 64.75413928 -47.84021344 64.39049243 -54.6015625 63.97265625 C-60.99849116 64.02412579 -65.99378441 65.33526792 -70.9375 69.4375 C-71.9584375 70.7059375 -71.9584375 70.7059375 -73 72 C-73.5775 72.680625 -74.155 73.36125 -74.75 74.0625 C-77.78112829 78.76074885 -77.58324076 84.60502297 -77 90 C-75.32632194 95.33030078 -72.75587029 98.9513652 -68 102 C-62.95023398 103.68325534 -57.92502558 103.90107581 -53.0625 101.625 C-49.80619951 99.21187978 -49.80619951 99.21187978 -48.6640625 95.50390625 C-48.65117187 94.53324219 -48.63828125 93.56257813 -48.625 92.5625 C-48.59664062 91.59441406 -48.56828125 90.62632812 -48.5390625 89.62890625 C-48.77014762 86.91657923 -48.77014762 86.91657923 -50.6953125 85.1640625 C-53.4327919 83.78140342 -55.2011518 83.69215073 -58.25 83.8125 C-59.14203125 83.83957031 -60.0340625 83.86664063 -60.953125 83.89453125 C-61.96632812 83.94673828 -61.96632812 83.94673828 -63 84 C-63.66 85.98 -64.32 87.96 -65 90 C-64.34 90 -63.68 90 -63 90 C-62.505 88.515 -62.505 88.515 -62 87 C-58.98088413 86.07749237 -57.6004589 85.68309113 -54.75 87.1875 C-52.75876001 89.2498557 -52.08429949 90.1338174 -52 93 C-54.26153846 97.63076923 -54.26153846 97.63076923 -57 99 C-64.75862069 99.43103448 -64.75862069 99.43103448 -68 97 C-71.16418268 93.04477164 -71.44476935 89.98141668 -71 85 C-69.80650825 79.98733466 -67.01722361 77.95142959 -63 75 C-57.73255228 73.24418409 -53.42211114 73.52596295 -48.25 75.25 C-44.32802085 77.36183493 -41.98689373 79.23397963 -39.8125 83.125 C-37.56940797 91.06209487 -37.22167928 98.46941595 -41 106 C-45.84148367 112.09765241 -53.2875999 115.52098063 -60.875 116.5 C-69.54902703 115.98163185 -77.76385525 111.92654891 -84 106 C-91.00520151 97.15132441 -90.94084652 87.22455673 -90.30322266 76.42138672 C-89.47912256 69.8405294 -86.12394877 63.28165582 -81 59 C-80.34 59 -79.68 59 -79 59 C-79 58.34 -79 57.68 -79 57 C-68.42161105 49.35626089 -56.54797735 49.54474975 -44 51 C-37.5251516 52.24266031 -31.46573637 54.48834903 -25.4296875 57.12109375 C-18.6250838 59.58256615 -8.97964376 60.15890563 -2 58 C5.06361269 54.38755881 10.86610862 49.39276942 14 42 C16.03997208 33.84011168 15.01082597 27.32177626 11 20 C8.24991409 15.54296421 5.0690083 13.25279673 0 12 C-6.83998479 11.09826567 -11.48538862 11.80889535 -17 16 C-20.70700575 19.80205718 -21.32443952 22.97537591 -21.5625 28.125 C-21.40989282 31.9735624 -21.34289169 33.52437605 -19.0625 36.6875 C-15.02853242 38.41634325 -11.4051574 39.32052451 -7 39 C-4.25 37.75 -4.25 37.75 -3 35 C-2.56636689 32.14477939 -2.71602987 29.93435802 -3 27 C-3.99 26.01 -3.99 26.01 -5 25 C-5.185625 26.670625 -5.185625 26.670625 -5.375 28.375 C-6 32 -6 32 -8 34 C-11.10347254 34.33015665 -13.15781176 34.50531294 -15.875 32.875 C-17.51790359 30.13682735 -17.3202194 28.13815009 -17 25 C-16.06788396 21.73759384 -15.09226764 21.05946137 -12.1875 19.1875 C-8.69529431 17.88648219 -7.45301203 17.76045722 -4 19 C0.65952507 21.32976253 2.90030962 23.85560376 5.25 28.4375 C6.4723855 32.61398381 5.33860487 35.19379793 3.6875 39.125 C2.01189937 41.97972701 0.86035095 43.39105259 -2 45 C-2.99 45 -3.98 45 -5 45 C-5 45.66 -5 46.32 -5 47 C-10.19281164 48.73093721 -14.51318114 48.48706135 -19.625 46.8125 C-25.57378586 43.61778167 -29.62233756 40.41968859 -32 34 C-34.12072625 26.66867216 -34.67311772 20.86430155 -31 14 C-26.3381855 6.76973356 -19.21970404 1.45886181 -10.8125 -0.4375 C-6.93266731 -1.02842836 -3.83516813 -0.97919186 0 0 Z " fill="#000000" transform="translate(299,231)"/>
<path d="M0 0 C-0.33 1.65 -0.66 3.3 -1 5 C-2.65 5.33 -4.3 5.66 -6 6 C-4.08723429 16.95493086 -0.78909667 27.51212312 2.63671875 38.07421875 C6.20486287 49.0759119 9.42296226 60.10479649 12.36572266 71.29077148 C14.76658021 80.33346179 17.51583117 89.23347686 20.421875 98.125 C22.97284089 105.93972726 25.26179096 113.82356898 27.4375 121.75 C28.65767754 126.1835903 29.87834844 130.61563201 31.17578125 135.02734375 C31.53027344 136.23519531 31.88476562 137.44304687 32.25 138.6875 C32.56453125 139.74324219 32.8790625 140.79898438 33.203125 141.88671875 C34.06234987 145.24359239 34.56782446 148.56420445 35 152 C28.79409862 153.43787685 22.61279782 154.62636067 16.3125 155.5625 C15.44181885 155.69325928 14.5711377 155.82401855 13.67407227 155.95874023 C7.59123443 156.84228406 1.57719431 157.42776669 -4.56640625 157.69140625 C-8.29415558 158.02643719 -11.87891469 158.67641367 -15.55444336 159.36938477 C-22.31863781 160.6073862 -29.11058285 161.68211876 -35.90039062 162.76928711 C-37.64826995 163.05047769 -39.39566265 163.33470841 -41.14257812 163.62182617 C-43.68774173 164.03993989 -46.23424646 164.44873367 -48.78125 164.85546875 C-49.56246216 164.9855986 -50.34367432 165.11572845 -51.14855957 165.24980164 C-54.53192793 165.78057354 -56.70174667 166.09941778 -60 165 C-60.13237146 150.49724172 -60.26281691 135.9944671 -60.39115143 121.49167252 C-60.45082144 114.75322926 -60.51109416 108.01479256 -60.57275391 101.27636719 C-60.84161795 71.8505335 -61.09941902 42.42726556 -61 13 C-62.98 13.66 -64.96 14.32 -67 15 C-67.99 14.01 -68.98 13.02 -70 12 C-69.25463867 10.05224609 -69.25463867 10.05224609 -68 8 C-66.1887207 7.36572266 -66.1887207 7.36572266 -63.92578125 7.1640625 C-63.04897705 7.0722168 -62.17217285 6.98037109 -61.26879883 6.88574219 C-60.29322021 6.79969727 -59.3176416 6.71365234 -58.3125 6.625 C-50.13498671 5.7709314 -42.02490204 4.73799838 -33.90625 3.4453125 C-33.03437546 3.30690948 -32.16250092 3.16850647 -31.26420593 3.02590942 C-27.7346273 2.46312144 -24.2057258 1.89678882 -20.67886353 1.31719971 C-18.17896993 0.90716441 -15.67758192 0.50758187 -13.17578125 0.109375 C-12.42458008 -0.01750702 -11.67337891 -0.14438904 -10.89941406 -0.27511597 C-6.99931009 -0.88820472 -3.817089 -1.09260483 0 0 Z M-24 44 C-25.43366805 44.20621621 -26.8741599 44.36637858 -28.31640625 44.5 C-29.58581055 44.62375 -29.58581055 44.62375 -30.88085938 44.75 C-32.67249242 44.9170277 -34.4641593 45.08369281 -36.25585938 45.25 C-37.10083984 45.3325 -37.94582031 45.415 -38.81640625 45.5 C-39.59443604 45.5721875 -40.37246582 45.644375 -41.17407227 45.71875 C-43.01522954 45.81815694 -43.01522954 45.81815694 -44 47 C-48.29 47.66 -52.58 48.32 -57 49 C-57 58.9 -57 68.8 -57 79 C-53.6798514 79 -50.5756904 78.57811559 -47.28515625 78.125 C-45.92599046 77.93976305 -44.56677668 77.75487788 -43.20751953 77.5703125 C-42.16087128 77.42770996 -42.16087128 77.42770996 -41.09307861 77.28222656 C-37.81265412 76.83990064 -34.52943466 76.42005428 -31.24609375 76 C-29.31540039 75.7525 -29.31540039 75.7525 -27.34570312 75.5 C-24.73639099 75.16617496 -22.12701571 74.83284306 -19.51757812 74.5 C-11.0000031 73.40701794 -2.49762305 72.23829329 6 71 C7.29193536 67.12419391 6.43556845 65.38316623 5.25 61.5 C3.61372452 56.06079461 2.09612947 50.61755012 0.7109375 45.109375 C0.1117724 42.81561706 0.1117724 42.81561706 -2 41 C-8.80809463 40.39483603 -17.87670685 40.93835343 -24 44 Z M4.25 108.9375 C3.47011719 109.02451172 2.69023437 109.11152344 1.88671875 109.20117188 C-1.86997926 109.33007162 -1.86997926 109.33007162 -5 111 C-7.40893467 111.4218016 -9.8048659 111.78863397 -12.2265625 112.12109375 C-13.33636978 112.27832664 -13.33636978 112.27832664 -14.46859741 112.43873596 C-16.85353162 112.77558022 -19.23924205 113.10654589 -21.625 113.4375 C-23.17973983 113.65652988 -24.73442799 113.8759269 -26.2890625 114.09570312 C-32.33098517 114.94661426 -38.37254117 115.79624209 -44.42480469 116.57080078 C-45.11714203 116.66007339 -45.80947937 116.74934601 -46.52279663 116.84132385 C-48.40459708 117.0824298 -50.28699756 117.31883932 -52.16943359 117.55493164 C-54.94101462 117.84431729 -54.94101462 117.84431729 -57 119 C-57.02917237 123.52081966 -57.0468568 128.04161488 -57.0625 132.5625 C-57.07087891 133.83931641 -57.07925781 135.11613281 -57.08789062 136.43164062 C-57.09111328 137.67236328 -57.09433594 138.91308594 -57.09765625 140.19140625 C-57.10289307 141.32779541 -57.10812988 142.46418457 -57.11352539 143.63500977 C-56.99486905 147.15208567 -56.55780511 150.52771145 -56 154 C-45.63645059 152.82618516 -35.36080617 151.28794151 -25.06884766 149.60473633 C-16.87236524 148.27417034 -8.66151421 147.08439386 -0.4375 145.9375 C9.43636972 144.55651082 19.23198757 143.00213919 29 141 C25.45124266 123.34777376 25.45124266 123.34777376 18 108 C13.39112111 107.72310999 8.81933515 108.39426538 4.25 108.9375 Z " fill="#000000" transform="translate(164,116)"/>
<path d="M0 0 C0.90092377 -0.01813751 1.80184753 -0.03627502 2.73007202 -0.05496216 C3.88500908 -0.08728188 3.88500908 -0.08728188 5.0632782 -0.12025452 C6.92025757 0.08151245 6.92025757 0.08151245 8.92025757 2.08151245 C9.11557007 5.33932495 9.11557007 5.33932495 9.04525757 9.20651245 C9.02721069 10.48784058 9.00916382 11.7691687 8.99057007 13.08932495 C8.96736694 14.07674683 8.94416382 15.0641687 8.92025757 16.08151245 C8.37498413 16.19108276 7.82971069 16.30065308 7.26791382 16.4135437 C3.3612377 17.2349474 -0.4330084 18.14179373 -4.20474243 19.45651245 C-12.12330566 22.18752473 -20.29743704 24.15727445 -28.42739868 26.1557312 C-29.14210327 26.3317688 -29.85680786 26.5078064 -30.59317017 26.68917847 C-31.96547968 27.0253935 -33.3386524 27.35811135 -34.71279907 27.68673706 C-37.36050105 28.33280754 -39.90946662 29.01277839 -42.43911743 30.03390503 C-47.3149489 31.96827937 -52.40736675 33.23388733 -57.45474243 34.64401245 C-58.56591431 34.96047729 -59.67708618 35.27694214 -60.82192993 35.60299683 C-66.23502425 37.12059648 -71.48403793 38.49291529 -77.07974243 39.08151245 C-78.54867221 32.75234111 -79.74130562 26.44356303 -80.70474243 20.01901245 C-80.90583618 18.74960815 -80.90583618 18.74960815 -81.11099243 17.45455933 C-81.8950496 12.26618104 -82.21318523 7.32824076 -82.07974243 2.08151245 C-72.62398945 1.22936805 -63.21463965 0.88228269 -53.72427368 0.7651062 C-52.28706895 0.74444813 -50.84986906 0.72345002 -49.41267395 0.70213318 C-45.66679159 0.64755945 -41.92085971 0.59792302 -38.17489624 0.54928589 C-35.13105862 0.50891734 -32.08727749 0.46497449 -29.04349232 0.42085171 C-25.37460281 0.36773745 -21.70569198 0.3161885 -18.03677368 0.2651062 C-17.35230478 0.25554838 -16.66783588 0.24599056 -15.9626255 0.23614311 C-12.78795525 0.19244225 -9.61335388 0.15291635 -6.4385376 0.12127686 C-4.29212812 0.09586575 -2.14580844 0.05679374 0 0 Z " fill="#000000" transform="translate(99.07974243164063,100.91848754882813)"/>
<path d="M0 0 C2.4629473 1.86459226 2.99284504 2.96935879 3.70776367 6.03100586 C3.93556519 7.85450562 3.93556519 7.85450562 4.16796875 9.71484375 C4.25250809 10.36699356 4.33704742 11.01914337 4.42414856 11.6910553 C4.69060085 13.77189047 4.93894043 15.85446012 5.1875 17.9375 C5.36541827 19.33542923 5.54444277 20.73321814 5.72460938 22.13085938 C7 32.21234285 7 32.21234285 7 37 C-10.7172784 38.22984259 -28.46616138 38.31816283 -46.2175293 38.53222656 C-50.37487325 38.58318146 -54.53215953 38.63847433 -58.68945312 38.69335938 C-66.79291946 38.7997243 -74.89643523 38.90141977 -83 39 C-83.33951619 37.43883181 -83.67132544 35.87598662 -84 34.3125 C-84.185625 33.44238281 -84.37125 32.57226562 -84.5625 31.67578125 C-84.98972047 29.06287036 -85.07616201 26.64186962 -85 24 C-79.18281671 21.67312669 -73.48600012 20.09042136 -67.375 18.75 C-59.81079495 17.02327873 -52.43525804 14.9775657 -45.0625 12.5625 C-37.44067699 10.06763829 -29.79829148 7.74278569 -22.0625 5.625 C-21.15701416 5.37435791 -20.25152832 5.12371582 -19.31860352 4.86547852 C-14.55213861 3.57759611 -9.90375512 2.64589102 -5 2 C-2.18137797 1.02450239 -2.18137797 1.02450239 0 0 Z " fill="#000000" transform="translate(230,71)"/>
<path d="M0 0 C2.33944736 0.28730055 4.6739143 0.61936779 7 1 C6.38487182 6.00890086 5.7282448 11.00632136 5 16 C6.670625 15.9690625 6.670625 15.9690625 8.375 15.9375 C12 16 12 16 14 17 C13.6875 18.875 13.6875 18.875 13 21 C9.3558226 23.4294516 7.28758728 23.16179575 3 23 C3.10658936 24.15786011 3.10658936 24.15786011 3.21533203 25.33911133 C3.53011477 28.8293109 3.827753 32.32076515 4.125 35.8125 C4.23714844 37.02744141 4.34929687 38.24238281 4.46484375 39.49414062 C4.56152344 40.65751953 4.65820312 41.82089844 4.7578125 43.01953125 C4.8520752 44.09307861 4.94633789 45.16662598 5.04345703 46.27270508 C5 49 5 49 3 52 C1.0625 51.625 1.0625 51.625 -1 51 C-2.16489106 48.67021788 -2.27810606 46.94544325 -2.5 44.3515625 C-2.5825 43.42859375 -2.665 42.505625 -2.75 41.5546875 C-2.8325 40.58789062 -2.915 39.62109375 -3 38.625 C-3.16377606 36.7211033 -3.33033927 34.81744383 -3.5 32.9140625 C-3.5721875 32.0679541 -3.644375 31.2218457 -3.71875 30.35009766 C-3.98093196 28.15933072 -4.41191526 26.12384352 -5 24 C-5.33 24.33 -5.66 24.66 -6 25 C-7.66608987 25.04384447 -9.33380554 25.0396713 -11 25 C-14.67034745 25 -16.0999431 26.0752892 -19.1875 28 C-20.08855469 28.556875 -20.98960937 29.11375 -21.91796875 29.6875 C-22.60503906 30.120625 -23.29210937 30.55375 -24 31 C-20.25712373 33.13181214 -18.21015871 32.95685425 -14 32 C-13.67 33.32 -13.34 34.64 -13 36 C-15.57793226 38.69001628 -17.76766331 39.30533765 -21.375 39.5 C-25.27475972 39.33964804 -27.89296923 38.5157135 -30.78125 35.68359375 C-34.45874672 30.60346207 -35.81256076 24.15224572 -35 18 C-33.36861406 14.91201947 -31.92494088 12.7335738 -29.1875 10.5625 C-25.77623408 9.68531734 -23.40094183 10.12044608 -20 11 C-16.88252671 12.86491706 -14.44356772 14.82771389 -13.125 18.3125 C-13.08375 18.869375 -13.0425 19.42625 -13 20 C-12.01 19.34 -11.02 18.68 -10 18 C-8.01200182 17.29835358 -6.01301483 16.62627128 -4 16 C-3.79503906 14.92878906 -3.59007812 13.85757813 -3.37890625 12.75390625 C-3.10697291 11.35673149 -2.83482648 9.95959819 -2.5625 8.5625 C-2.42779297 7.85544922 -2.29308594 7.14839844 -2.15429688 6.41992188 C-1.11328125 1.11328125 -1.11328125 1.11328125 0 0 Z M-26 17 C-26.66 17.66 -27.32 18.32 -28 19 C-27.67958603 21.60280568 -27.67958603 21.60280568 -27 24 C-24.55519921 23.81171228 -24.55519921 23.81171228 -22 23 C-20.63979849 21.03241727 -20.63979849 21.03241727 -20 19 C-20.66 18.34 -21.32 17.68 -22 17 C-23.32 17 -24.64 17 -26 17 Z " fill="#000000" transform="translate(285,167)"/>
<path d="M0 0 C3.18088567 0.81127657 6.27121266 1.80921038 9.375 2.875 C10.16777344 3.13152344 10.96054687 3.38804688 11.77734375 3.65234375 C12.53917969 3.90886719 13.30101562 4.16539063 14.0859375 4.4296875 C14.7670459 4.65897949 15.4481543 4.88827148 16.14990234 5.12451172 C18.26331786 6.12460515 19.52168798 7.19536001 21 9 C20.78042699 12.40338168 19.02993379 14.37205868 17 17 C17.78761719 17.42667969 18.57523437 17.85335937 19.38671875 18.29296875 C34.08687525 26.73033668 45.32784303 37.70645104 51 54 C50.6953125 56.46484375 50.6953125 56.46484375 50 58 C48.68 58 47.36 58 46 58 C45.79246094 57.39414063 45.58492188 56.78828125 45.37109375 56.1640625 C40.28818408 42.34024958 30.21862576 29.86398365 17 23 C13.43078589 21.60650957 13.43078589 21.60650957 10 22 C8.33078315 23.08368782 8.33078315 23.08368782 6.8125 24.5 C4 27 4 27 1.97265625 27.03515625 C-1.09090091 25.42754705 -1.3317092 23.15986272 -2.375 19.9375 C-4.20786845 14.7462701 -6.17426295 10.83957716 -9.765625 6.68359375 C-11.14274922 4.80530091 -11.58212226 3.2734539 -12 1 C-7.76718814 -1.82187457 -4.84690879 -0.91914289 0 0 Z " fill="#000000" transform="translate(271,91)"/>
<path d="M0 0 C5.03473141 1.91376683 10.02152695 3.94505581 15 6 C15 7.32 15 8.64 15 10 C4.71355593 11.72784615 -5.53239681 13.23046927 -15.91650391 14.22558594 C-22.2902282 14.86203407 -28.56955571 15.84881393 -34.86352539 17.03515625 C-39.65086524 17.90486847 -44.13219071 18.12019282 -49 18 C-47.49668519 13.72282691 -44.33509859 11.9065173 -40.6875 9.5625 C-36.29018418 6.70897569 -32.68208178 3.77945914 -29 0 C-27.5392935 -1.17556859 -26.04063326 -2.3063213 -24.5 -3.375 C-23.7678125 -3.89835937 -23.035625 -4.42171875 -22.28125 -4.9609375 C-16.01541975 -7.81489443 -6.25721936 -2.25870357 0 0 Z " fill="#000000" transform="translate(141,77)"/>
<path d="M0 0 C3.7109375 1.171875 3.7109375 1.171875 7.375 2.75 C8.00277344 3.00265625 8.63054687 3.2553125 9.27734375 3.515625 C13.77538658 5.45862406 13.77538658 5.45862406 14.9140625 8.203125 C14.94242188 8.79609375 14.97078125 9.3890625 15 10 C13.8803014 11.00593243 12.7540588 12.0045849 11.625 13 C10.68527344 13.8353125 10.68527344 13.8353125 9.7265625 14.6875 C8 16 8 16 6 16 C6 16.66 6 17.32 6 18 C6.7425 18.103125 7.485 18.20625 8.25 18.3125 C11.34168531 19.08542133 12.82248159 19.66694456 15 22 C16.125 25.1875 16.125 25.1875 16 29 C12.91630749 35.00508541 7.21463168 41.34015413 0.84765625 43.84765625 C-4.4251462 45.2874269 -4.4251462 45.2874269 -7 44 C-6.855625 43.484375 -6.71125 42.96875 -6.5625 42.4375 C-5.37700843 37.30036987 -4.84379679 33.18353703 -5.9375 28 C-7.39459377 20.98834744 -7.17323494 14.13150522 -7 7 C-8.32 6.67 -9.64 6.34 -11 6 C-10.6875 4.125 -10.6875 4.125 -10 2 C-6.23877838 -0.50748108 -4.46954945 -0.35164157 0 0 Z M0 8 C0.33 9.65 0.66 11.3 1 13 C2.32 12.34 3.64 11.68 5 11 C4.67 10.01 4.34 9.02 4 8 C2.68 8 1.36 8 0 8 Z M1 23 C1.33 26.96 1.66 30.92 2 35 C5.89459074 33.31622777 5.89459074 33.31622777 8 31 C8.41666667 28 8.41666667 28 8 25 C5.04622502 22.63019987 5.04622502 22.63019987 1 23 Z " fill="#000000" transform="translate(212,163)"/>
<path d="M0 0 C1.8125 1.31640625 1.8125 1.31640625 3 3 C2.55759284 4.87172259 2.09810341 6.74100696 1.5546875 8.5859375 C0.18476593 14.54799054 0.80078213 20.89038758 1.37109375 26.9296875 C1.43256592 27.59540771 1.49403809 28.26112793 1.55737305 28.94702148 C1.74161939 30.8509004 1.95603889 32.75178688 2.171875 34.65234375 C1.96192738 38.74155078 0.8675018 40.15866153 -2 43 C-4.86608129 44.43304064 -6.81300783 44.30644155 -10 44 C-13.53042884 42.16689272 -15.5167062 40.88253651 -17.4375 37.375 C-18 35 -18 35 -17 33 C-12.62853208 33.48571866 -10.9591701 34.83674921 -8 38 C-7.34 38 -6.68 38 -6 38 C-6 31.73 -6 25.46 -6 19 C-6.99 19.66 -7.98 20.32 -9 21 C-12.11518448 20.84024695 -13.71693187 20.20443809 -16.25 18.375 C-18.57152494 15.22435901 -18.86136828 12.88168813 -19 9 C-17.44095535 4.85309951 -15.0121186 3.18097888 -11.296875 0.984375 C-7.61234505 -0.59470927 -3.91020359 -0.92549197 0 0 Z M-10.6875 6.125 C-12.53521368 8.76459098 -12.20946395 10.85804073 -12 14 C-10.68 14.33 -9.36 14.66 -8 15 C-5.5943192 11.05924297 -5.5943192 11.05924297 -5.3125 6.625 C-5.6528125 5.820625 -5.6528125 5.820625 -6 5 C-8.92199528 4.7226499 -8.92199528 4.7226499 -10.6875 6.125 Z " fill="#000000" transform="translate(342,174)"/>
<path d="M0 0 C2.08552992 1.54483698 2.67819412 2.87338658 3.6875 5.25 C4.20635419 11.37247945 3.3626344 17.15490526 2.375 23.1875 C2.25745361 23.94571045 2.13990723 24.7039209 2.01879883 25.48510742 C1.676383 27.42736 1.19063593 29.34305273 0.6875 31.25 C-0.3025 31.91 -1.2925 32.57 -2.3125 33.25 C-2.9725 32.92 -3.6325 32.59 -4.3125 32.25 C-4.3125 31.59 -4.3125 30.93 -4.3125 30.25 C-4.98796875 30.14042969 -5.6634375 30.03085938 -6.359375 29.91796875 C-7.69742187 29.68013672 -7.69742187 29.68013672 -9.0625 29.4375 C-9.94421875 29.28667969 -10.8259375 29.13585937 -11.734375 28.98046875 C-14.56772789 28.17768543 -16.17852818 27.26836161 -18.3125 25.25 C-19.38313711 21.3957064 -19.72490908 19.20505261 -18.125 15.5 C-15.48909927 12.22784738 -13.3002196 10.57923987 -9.3125 9.25 C-6.97950175 9.21045766 -4.64541811 9.20598268 -2.3125 9.25 C-2.3125 8.26 -2.3125 7.27 -2.3125 6.25 C-5.42233703 6.76830617 -8.52674852 7.29042425 -11.625 7.875 C-12.9553125 8.060625 -12.9553125 8.060625 -14.3125 8.25 C-15.3125 7.25 -15.3125 7.25 -15.5 4.8125 C-15.3125 2.25 -15.3125 2.25 -13.3125 0.25 C-9.07219331 -1.32048396 -4.28246795 -1.38890853 0 0 Z M-13.3125 18.25 C-12.9825 19.57 -12.6525 20.89 -12.3125 22.25 C-10.0025 22.91 -7.6925 23.57 -5.3125 24.25 C-3.45473235 21.11501708 -3.11109524 18.87528568 -3.3125 15.25 C-7.17945678 15.25 -9.8213452 16.66909971 -13.3125 18.25 Z " fill="#000000" transform="translate(318.3125,176.75)"/>
<path d="M0 0 C1.32 0.33 2.64 0.66 4 1 C4 8.26 4 15.52 4 23 C9.55036295 22.81779628 9.55036295 22.81779628 15 22 C16.7536564 19.66057656 16.7536564 19.66057656 18 17 C20.61316401 15.65653866 23.17827397 14.87889827 26 14 C23.36 14 20.72 14 18 14 C18 12.68 18 11.36 18 10 C22.03040364 7.98479818 24.67520309 7.58974014 29 9 C31.53877988 12.06961568 32.00342076 13.67605401 31.9609375 17.69921875 C31.78438511 19.03126702 31.58859615 20.36088776 31.375 21.6875 C31.29121094 22.36361328 31.20742188 23.03972656 31.12109375 23.73632812 C30.8359375 25.69921875 30.8359375 25.69921875 30 29 C29.01 29.66 28.02 30.32 27 31 C24.625 30.3203125 24.625 30.3203125 22 29.125 C18.15962013 27.38787795 18.15962013 27.38787795 14 27 C13.67 27.33 13.34 27.66 13 28 C10.49359781 28.26352359 8.0132401 28.46821071 5.5 28.625 C4.44619141 28.70234375 4.44619141 28.70234375 3.37109375 28.78125 C1.58307759 28.89838401 -0.20874268 28.95396301 -2 29 C-3 28 -3 28 -3.1328125 25.0078125 C-3.08870968 3.08870968 -3.08870968 3.08870968 0 0 Z M21 20 C20.67 21.32 20.34 22.64 20 24 C21.98 24 23.96 24 26 24 C26 22.68 26 21.36 26 20 C24.35 20 22.7 20 21 20 Z " fill="#000000" transform="translate(236,131)"/>
<path d="M0 0 C4.29015196 2.27125692 7.11891176 4.46325777 9 9 C8.8828125 11.421875 8.8828125 11.421875 8 14 C5.71484375 16.01953125 5.71484375 16.01953125 2.9375 17.8125 C2.01839844 18.41707031 1.09929687 19.02164063 0.15234375 19.64453125 C-0.55792969 20.09183594 -1.26820313 20.53914063 -2 21 C-1.67 21.66 -1.34 22.32 -1 23 C1.97 22.67 4.94 22.34 8 22 C8.33 23.32 8.66 24.64 9 26 C6.37072604 28.74359022 4.23366026 29.26486519 0.5625 29.375 C-3.39856261 29.22540322 -5.90833358 28.63700959 -9 26 C-13.1702514 20.19143555 -13.84057346 14.0085652 -13 7 C-9.74231864 1.60797567 -6.34715252 -0.74672383 0 0 Z M-5 7 C-6.10636395 9.39068734 -6.10636395 9.39068734 -7 12 C-6.67 12.66 -6.34 13.32 -6 14 C-3.05908413 13.81584568 -3.05908413 13.81584568 0 13 C1.43637698 11.04836882 1.43637698 11.04836882 2 9 C0.16116119 6.71271266 0.16116119 6.71271266 -2.625 6.875 C-3.40875 6.91625 -4.1925 6.9575 -5 7 Z " fill="#000000" transform="translate(382,177)"/>
<path d="M0 0 C1.65 0 3.3 0 5 0 C5.33 1.65 5.66 3.3 6 5 C7.65 3.35 9.3 1.7 11 0 C13.375 0.5625 13.375 0.5625 16 2 C18.84747653 8.26444837 19.31599923 16.20174629 19 23 C17.76171875 24.984375 17.76171875 24.984375 16 26 C14.68 25.67 13.36 25.34 12 25 C11.34 20.05 10.68 15.1 10 10 C9.278125 11.959375 8.55625 13.91875 7.8125 15.9375 C6.58203125 19.27734375 6.58203125 19.27734375 5 22 C2.32421875 22.87890625 2.32421875 22.87890625 0 23 C-1.16171778 20.67656444 -1.12903969 19.30366684 -1.1328125 16.71875 C-1.13410156 15.87699219 -1.13539063 15.03523437 -1.13671875 14.16796875 C-1.13285156 13.28753906 -1.12898438 12.40710938 -1.125 11.5 C-1.12886719 10.61957031 -1.13273437 9.73914063 -1.13671875 8.83203125 C-1.13542969 7.99027344 -1.13414062 7.14851562 -1.1328125 6.28125 C-1.13168457 5.50845703 -1.13055664 4.73566406 -1.12939453 3.93945312 C-1 2 -1 2 0 0 Z " fill="#000000" transform="translate(347,180)"/>
<path d="M0 0 C2.4375 0.125 2.4375 0.125 5 1 C6.8125 3.0625 6.8125 3.0625 8 5 C8.721875 4.319375 9.44375 3.63875 10.1875 2.9375 C13 1 13 1 15.8125 1.25 C16.8953125 1.62125 16.8953125 1.62125 18 2 C18.33 2.99 18.66 3.98 19 5 C18.67 5.66 18.34 6.32 18 7 C17.34 7 16.68 7 16 7 C16 7.66 16 8.32 16 9 C14.88814573 9.93767344 13.73478293 10.82656787 12.5625 11.6875 C9.61375867 14.1228977 9.05032519 14.82534197 7.9375 18.6875 C7.70504095 22.14137542 7.70504095 22.14137542 10 25 C9.6758631 28.32240324 9.39223697 29.60776303 7 32 C4.5 32.3125 4.5 32.3125 2 32 C-0.01175938 28.98236093 -0.26119094 28.24904567 -0.37890625 24.83984375 C-0.41306641 24.04642578 -0.44722656 23.25300781 -0.48242188 22.43554688 C-0.50884766 21.61119141 -0.53527344 20.78683594 -0.5625 19.9375 C-0.62236985 18.3006327 -0.68599395 16.66389711 -0.75390625 15.02734375 C-0.77783447 14.30281006 -0.8017627 13.57827637 -0.82641602 12.83178711 C-0.89801324 10.90327412 -0.89801324 10.90327412 -2 9 C-2.1875 5.5 -2.1875 5.5 -2 2 C-1.34 1.34 -0.68 0.68 0 0 Z " fill="#000000" transform="translate(231,175)"/>
</svg>
