<?xml version="1.0" encoding="UTF-8"?>
<svg version="1.1" xmlns="http://www.w3.org/2000/svg" width="410" height="430">
<path d="M0 0 C2.5625 2.0625 2.5625 2.0625 4.5625 4.0625 C6.63124034 4.7050235 6.63124034 4.7050235 8.5625 5.0625 C8.5625 4.4025 8.5625 3.7425 8.5625 3.0625 C14.7908129 -0.44800364 20.41180802 -2.84700881 27.6640625 -1.56640625 C33.12544201 0.13104954 37.13802863 3.52738926 40.5625 8.0625 C43.11039088 13.28610237 43.39912883 18.3508993 42.5625 24.0625 C41.41099913 26.26435639 40.18099313 28.04055809 38.55859375 29.91796875 C35.48690984 36.53112352 40.12824911 46.51657057 41.94604492 53.20874023 C42.50109067 55.254019 43.04704014 57.30156888 43.59179688 59.34960938 C45.35487571 66.16512696 45.35487571 66.16512696 47.68188477 72.7980957 C48.5625 75.0625 48.5625 75.0625 48.5625 78.0625 C49.14 78.10375 49.7175 78.145 50.3125 78.1875 C53.72413661 79.51424757 55.05818395 81.88124147 56.5625 85.0625 C60.3335578 95.7574672 60.3335578 95.7574672 58.5625 100.0625 C58.03011719 100.55492187 57.49773437 101.04734375 56.94921875 101.5546875 C56.49160156 102.05226563 56.03398437 102.54984375 55.5625 103.0625 C55.6399248 105.07588121 55.6399248 105.07588121 56.375 107.1875 C57.96020797 113.32893465 58.94534444 119.09033841 55.8125 124.875 C46.84131383 137.58418041 27.14943453 138.67894262 12.79492188 141.90039062 C11.69083984 142.15111328 10.58675781 142.40183594 9.44921875 142.66015625 C7.96748169 142.99285522 7.96748169 142.99285522 6.45581055 143.33227539 C3.48495577 144.04294773 3.48495577 144.04294773 0.34106445 145.14282227 C-3.80612573 146.51550177 -7.24188943 146.101987 -11.4375 145.0625 C-15.79429294 142.76079807 -18.84847646 140.25850366 -21.4375 136.0625 C-21.9038242 134.19446012 -22.33862937 132.31840549 -22.75 130.4375 C-23.56688215 126.57337854 -23.56688215 126.57337854 -26.109375 123.7890625 C-27.85208159 123.11934468 -29.64485158 122.58399772 -31.4375 122.0625 C-33.66642802 118.71910797 -34.34629743 116.09116499 -35.25 112.1875 C-35.54519531 110.97320312 -35.84039062 109.75890625 -36.14453125 108.5078125 C-36.48078638 104.55345223 -35.93982941 103.08830522 -33.4375 100.0625 C-32.7775 100.0625 -32.1175 100.0625 -31.4375 100.0625 C-33.60162599 89.52193343 -36.1276549 79.2169221 -39.41845703 68.96582031 C-40.99082423 63.97317032 -41.94225967 59.27744032 -42.4375 54.0625 C-43.30375 53.876875 -43.30375 53.876875 -44.1875 53.6875 C-46.46085767 53.05601176 -48.3628529 52.17391809 -50.4375 51.0625 C-50.4375 50.4025 -50.4375 49.7425 -50.4375 49.0625 C-51.4275 48.7325 -52.4175 48.4025 -53.4375 48.0625 C-57.40011739 42.33623881 -59.4386807 36.95952263 -58.4375 30.0625 C-56.18949427 23.08045867 -51.71590479 18.6594741 -45.5390625 14.91015625 C-43.00289518 13.887204 -41.03963643 13.83022612 -38.3125 13.875 C-37.44367188 13.88144531 -36.57484375 13.88789062 -35.6796875 13.89453125 C-33.4375 14.0625 -33.4375 14.0625 -31.4375 15.0625 C-31.12619141 14.19238281 -31.12619141 14.19238281 -30.80859375 13.3046875 C-27.87204631 5.85888103 -23.92604868 1.39605848 -16.5625 -1.875 C-10.58133178 -3.8223571 -5.41859858 -3.0541192 0 0 Z M29.3125 85.375 C25.35804295 86.58657833 21.42723672 87.54981725 17.375 88.375 C10.67746441 89.76631126 4.05988311 91.41248384 -2.5625 93.125 C-3.57078857 93.3825708 -4.57907715 93.6401416 -5.61791992 93.90551758 C-6.57158447 94.15454834 -7.52524902 94.4035791 -8.5078125 94.66015625 C-9.36133301 94.88195557 -10.21485352 95.10375488 -11.09423828 95.33227539 C-13.36507698 96.039931 -15.34748914 96.9354624 -17.4375 98.0625 C-15.86405051 106.01929337 -14.06065035 113.90602921 -12 121.75 C-11.80704346 122.52778809 -11.61408691 123.30557617 -11.4152832 124.10693359 C-10.56336751 127.2610707 -9.77958532 129.67538434 -7.59765625 132.14453125 C-4.68955768 133.38034167 -3.33019365 132.95663145 -0.3125 132.0625 C0.74839844 131.76214844 1.80929688 131.46179688 2.90234375 131.15234375 C4.71412109 130.61287109 4.71412109 130.61287109 6.5625 130.0625 C8.69842603 129.45464148 10.83671526 128.85581326 12.97583008 128.25927734 C14.49873124 127.83453261 16.02070277 127.40644127 17.54174805 126.97509766 C21.47328797 125.87096983 25.40469207 124.84683501 29.390625 123.95703125 C30.16446533 123.78421631 30.93830566 123.61140137 31.7355957 123.43334961 C33.21111876 123.11024585 34.68879201 122.79676404 36.16870117 122.49438477 C38.93095466 121.89159566 41.21337779 121.30001199 43.56640625 119.69921875 C44.92230807 117.47128596 44.6678397 116.52373242 44.0625 114 C43.85625 113.12730469 43.65 112.25460938 43.4375 111.35546875 C39.82493352 97.61267953 39.82493352 97.61267953 35.5625 84.0625 C33.21937927 84.0625 31.54591406 84.65394745 29.3125 85.375 Z " fill="#000000" transform="translate(132.4375,49.9375)"/>
<path d="M0 0 C7.20970582 7.2433175 8.75918524 14.25019878 8.875 24.25 C8.77295188 33.85136197 7.24188349 41.75501104 3.25 50.5625 C2.58097656 52.05136719 2.58097656 52.05136719 1.8984375 53.5703125 C-1.52392751 60.43416188 -6.10524764 66.35803832 -11.75 71.5625 C-12.41 71.5625 -13.07 71.5625 -13.75 71.5625 C-13.75 72.2225 -13.75 72.8825 -13.75 73.5625 C-23.16002278 78.15475513 -23.16002278 78.15475513 -27.75 77.5625 C-27.86730469 78.27019531 -27.98460937 78.97789062 -28.10546875 79.70703125 C-28.79332456 82.75444094 -29.8259915 85.38267843 -31.0625 88.25 C-31.51109375 89.30445313 -31.9596875 90.35890625 -32.421875 91.4453125 C-32.86015625 92.47398437 -33.2984375 93.50265625 -33.75 94.5625 C-36.60338896 101.48920508 -39.3364408 108.46912884 -41.75 115.5625 C-41.99363281 116.26632813 -42.23726562 116.97015625 -42.48828125 117.6953125 C-43.0077237 119.89614409 -43.0077237 119.89614409 -40.75 122.5625 C-41.13815633 126.90832872 -42.92677896 130.86713159 -44.5625 134.875 C-44.96734619 135.8801062 -44.96734619 135.8801062 -45.38037109 136.90551758 C-46.74931304 140.26338441 -48.17808307 143.54546364 -49.875 146.75 C-52.05074688 150.87672653 -53.32856931 155.24882152 -54.75 159.6796875 C-55.8382466 162.81689841 -57.19715461 165.64251381 -58.74609375 168.5703125 C-61.96649795 174.96099788 -64.26726114 181.85910507 -66.75 188.5625 C-67.41 188.5625 -68.07 188.5625 -68.75 188.5625 C-68.75 189.2225 -68.75 189.8825 -68.75 190.5625 C-74.80922337 189.56189431 -80.15471527 187.00476617 -85.75 184.5625 C-86.43578125 184.28019531 -87.1215625 183.99789062 -87.828125 183.70703125 C-91.50142382 182.09327618 -91.50142382 182.09327618 -92.55859375 179.8359375 C-92.83460228 176.55763209 -91.61331336 174.66430818 -90.125 171.75 C-87.7127182 166.79700473 -85.77520184 161.93974829 -84.125 156.6875 C-81.73114641 149.13903261 -81.73114641 149.13903261 -79.75 145.9375 C-77.25131713 141.72097266 -75.67799575 137.33961625 -73.99609375 132.74609375 C-72.75 129.5625 -72.75 129.5625 -71.19140625 126.453125 C-69.58615304 123.23391802 -68.59238142 120.05499311 -67.59375 116.61328125 C-66.64147468 114.29872317 -65.7273839 113.08915669 -63.75 111.5625 C-62.76 111.5625 -61.77 111.5625 -60.75 111.5625 C-57.92149209 106.20734075 -55.43591199 100.97766603 -53.6328125 95.1953125 C-52.4473835 91.66000653 -51.07412107 88.21052389 -49.6875 84.75 C-49.42976807 84.10329346 -49.17203613 83.45658691 -48.90649414 82.7902832 C-47.8834705 80.25044239 -46.88525352 77.79442375 -45.50390625 75.42578125 C-44.4413876 72.79976366 -44.94883573 71.24411719 -45.75 68.5625 C-46.41494527 67.09374538 -47.1036943 65.63559766 -47.8125 64.1875 C-52.00651859 53.90143981 -50.4814434 41.79769158 -46.75 31.5625 C-40.68549771 17.54982426 -32.5517146 5.06789521 -18.75 -2.4375 C-12.33192638 -4.18788371 -5.41564964 -4.17677554 0 0 Z M-79.75 170.5625 C-79.42028521 173.85964793 -79.1273161 175.1851839 -76.75 177.5625 C-73.81546739 177.19568342 -72.88562754 176.69812754 -70.75 174.5625 C-71.03983269 171.25566534 -71.03983269 171.25566534 -72.75 168.5625 C-76.711168 168.17159667 -76.711168 168.17159667 -79.75 170.5625 Z " fill="#000000" transform="translate(269.75,60.4375)"/>
<path d="M0 0 C0.66 0 1.32 0 2 0 C-3.77260945 12.51192383 -17.79209032 21.72009605 -29 29 C-30.33417969 29.45052734 -30.33417969 29.45052734 -31.6953125 29.91015625 C-34.19744138 30.79837425 -34.19744138 30.79837425 -35.10546875 33.28515625 C-35.40066406 34.18105469 -35.69585937 35.07695312 -36 36 C-39.47891329 42.02018497 -43.21086345 47.9371985 -48 53 C-48.66 53 -49.32 53 -50 53 C-50.165 53.680625 -50.33 54.36125 -50.5 55.0625 C-55.95187818 65.73909477 -71.09677471 73.12329768 -82 77 C-83.03898437 77.37125 -84.07796875 77.7425 -85.1484375 78.125 C-92.82009799 80.52135382 -99.86899283 81.38384422 -107.875 81.4375 C-108.7422168 81.44749023 -109.60943359 81.45748047 -110.50292969 81.46777344 C-116.47256139 81.38781281 -121.45966386 80.20154138 -127 78 C-126.39487969 73.15903753 -124.29744136 69.22477818 -122 65 C-121.50371094 64.06542969 -121.00742188 63.13085938 -120.49609375 62.16796875 C-116.99961446 55.84834609 -113.15792129 50.54686828 -108.18359375 45.3125 C-106.18779294 43.19887911 -104.38385272 41.01276291 -102.5625 38.75 C-98.70164031 34.32869293 -94.14881794 31.71721726 -89 29 C-88.17113281 28.54625 -87.34226563 28.0925 -86.48828125 27.625 C-76.49589639 22.3542915 -67.72157846 20.53208177 -56.4375 20.75 C-54.8297168 20.75773437 -54.8297168 20.75773437 -53.18945312 20.765625 C-48.38266184 20.81266394 -43.78163713 20.99173157 -39.03515625 21.765625 C-35.71703508 22.1876585 -35.26953877 22.17539552 -32.3046875 20.24609375 C-31.16386719 19.13427734 -31.16386719 19.13427734 -30 18 C-28.06759313 16.9706116 -26.10742531 15.99192278 -24.125 15.0625 C-20.49281461 13.30672035 -17.16185462 11.55185966 -13.9375 9.125 C-11 7 -11 7 -8 7 C-8 6.34 -8 5.68 -8 5 C-6.20963542 3.99088542 -4.41927083 2.98177083 -2.62890625 1.97265625 C-1.02121854 1.1027487 -1.02121854 1.1027487 0 0 Z M-34.625 23.5 C-35.44226563 23.9640625 -36.25953125 24.428125 -37.1015625 24.90625 C-37.72804687 25.2671875 -38.35453125 25.628125 -39 26 C-39 26.66 -39 27.32 -39 28 C-39.66 28.2475 -40.32 28.495 -41 28.75 C-47.64496446 31.51873519 -53.80854155 34.9793381 -60 38.625 C-60.68368652 39.02146729 -61.36737305 39.41793457 -62.07177734 39.82641602 C-63.74982045 40.82733537 -65.38013354 41.90743382 -67 43 C-67 43.66 -67 44.32 -67 45 C-67.639375 45.2475 -68.27875 45.495 -68.9375 45.75 C-72.99988351 47.40811572 -76.99724906 49.2035584 -81 51 C-81 51.66 -81 52.32 -81 53 C-81.82951172 53.14115234 -81.82951172 53.14115234 -82.67578125 53.28515625 C-85.61479321 54.18908766 -87.68421089 55.65894452 -90.1875 57.4375 C-91.06792969 58.05496094 -91.94835937 58.67242187 -92.85546875 59.30859375 C-95.08904035 60.8236349 -95.08904035 60.8236349 -96 63 C-84.87966896 61.45643166 -74.86709929 56.10057086 -65 51 C-62.81356552 49.91451779 -60.6260849 48.8311399 -58.4375 47.75 C-55.46578511 46.28190181 -52.76198921 44.84132614 -50 43 C-50 42.34 -50 41.68 -50 41 C-49.28457031 40.7525 -48.56914063 40.505 -47.83203125 40.25 C-44.68590294 38.86136405 -42.36189037 37.15536054 -39.6875 35 C-38.80449219 34.29875 -37.92148438 33.5975 -37.01171875 32.875 C-36.34785156 32.25625 -35.68398437 31.6375 -35 31 C-35 30.34 -35 29.68 -35 29 C-34.34 29 -33.68 29 -33 29 C-29.36366461 25.52001493 -29.36366461 25.52001493 -28 21 C-30.74251195 21 -32.25505845 22.14574768 -34.625 23.5 Z " fill="#000000" transform="translate(151,206)"/>
<path d="M0 0 C13.54161952 0.35301406 25.66337384 4.02738621 35.37890625 13.7265625 C36.42691406 14.86931641 36.42691406 14.86931641 37.49609375 16.03515625 C38.17414063 16.76605469 38.8521875 17.49695313 39.55078125 18.25 C47.49609375 27.1019353 47.49609375 27.1019353 47.49609375 30.03515625 C48.965625 30.20724609 48.965625 30.20724609 50.46484375 30.3828125 C54.77550778 30.99970582 58.84035962 32.19768594 62.99609375 33.47265625 C64.44394156 33.90908265 65.89185751 34.34528308 67.33984375 34.78125 C68.03335938 34.99378418 68.726875 35.20631836 69.44140625 35.42529297 C70.80463898 35.8299217 72.17475554 36.21207925 73.55078125 36.57080078 C75.21425626 37.00491684 76.85789107 37.51371803 78.49609375 38.03515625 C78.82609375 38.69515625 79.15609375 39.35515625 79.49609375 40.03515625 C72.2144541 40.2921553 65.10244536 39.90049685 57.87109375 39.09765625 C57.07719238 39.01080566 56.28329102 38.92395508 55.46533203 38.83447266 C49.75998337 38.16710106 49.75998337 38.16710106 47.49609375 37.03515625 C42.58573934 36.75721166 38.15556189 37.20776823 33.30859375 38.03515625 C17.68218 40.56721403 2.06844572 38.93444408 -11.7578125 30.69140625 C-13.77011488 29.22791361 -15.63298234 27.67546926 -17.50390625 26.03515625 C-18.32761719 25.35324219 -19.15132812 24.67132813 -20 23.96875 C-25.4858719 19.28171235 -30.14839203 14.48701896 -33.50390625 8.03515625 C-33.50390625 7.37515625 -33.50390625 6.71515625 -33.50390625 6.03515625 C-22.1907645 2.62864357 -11.87425588 0.11913969 0 0 Z M-6.50390625 16.03515625 C-6.50390625 16.69515625 -6.50390625 17.35515625 -6.50390625 18.03515625 C-2.2071803 21.5825894 2.67968572 23.62675795 7.95703125 25.22265625 C10.97040126 26.18693465 13.87211866 27.3577629 16.80859375 28.53515625 C29.39062217 33.34422254 40.15705816 34.43532732 53.49609375 34.03515625 C52.6660893 31.81707796 52.6660893 31.81707796 50.28491211 31.16894531 C49.31175049 30.88245117 48.33858887 30.59595703 47.3359375 30.30078125 C45.6964917 29.81472412 45.6964917 29.81472412 44.02392578 29.31884766 C42.83911621 28.97772949 41.65430664 28.63661133 40.43359375 28.28515625 C38.62544189 27.75607666 38.62544189 27.75607666 36.78076172 27.21630859 C27.60867744 24.56435641 18.38722592 22.15766508 9.10131836 19.93847656 C8.17198486 19.71514648 7.24265137 19.49181641 6.28515625 19.26171875 C5.47771973 19.07174316 4.6702832 18.88176758 3.83837891 18.68603516 C1.49609375 18.03515625 1.49609375 18.03515625 -1.11572266 16.95849609 C-3.54351973 15.85484914 -3.54351973 15.85484914 -6.50390625 16.03515625 Z " fill="#000000" transform="translate(117.50390625,281.96484375)"/>
<path d="M0 0 C3.32436221 1.10812074 3.92685332 1.85536627 6.0625 4.5 C11.06327782 10.39453385 16.80736232 16.85838814 24 20 C24 22.125 24 22.125 23 25 C20.50224217 27.25484692 17.80198037 29.14265083 15 31 C17.34287689 44.45086967 21.97995631 57.52489024 31.6796875 67.4765625 C33 69 33 69 33 71 C33.556875 71.2475 34.11375 71.495 34.6875 71.75 C37.4088901 73.22102167 39.61578522 75.03302281 42 77 C43.32901064 78.00573778 44.66073801 79.00795408 46 80 C45.505 81.98 45.505 81.98 45 84 C36.33177425 83.25406959 30.44406127 76.64526073 24.7265625 70.59375 C16.70508203 60.57482578 12.29090069 47.29932579 9 35 C8.0925 35.680625 7.185 36.36125 6.25 37.0625 C3 39 3 39 0.625 38.75 C0.08875 38.5025 -0.4475 38.255 -1 38 C-3.34572105 30.67217522 -3.33130752 23.86472902 -3.3125 16.1875 C-3.32822141 14.83918613 -3.34449276 13.49087855 -3.36132812 12.14257812 C-3.36229492 10.23702148 -3.36229492 10.23702148 -3.36328125 8.29296875 C-3.36626221 7.1330542 -3.36924316 5.97313965 -3.37231445 4.77807617 C-3.24945068 3.86131104 -3.12658691 2.9445459 -3 2 C-2.01 1.34 -1.02 0.68 0 0 Z " fill="#010000" transform="translate(254,181)"/>
<path d="M0 0 C1.24652344 -0.01417969 2.49304688 -0.02835937 3.77734375 -0.04296875 C7.0625 0.1875 7.0625 0.1875 10.0625 2.1875 C11.43988209 7.68318533 10.76497177 12.1556899 9.625 17.5625 C8.03469862 25.82548169 6.74395578 33.09854846 10.0625 41.1875 C11.0525 41.1875 12.0425 41.1875 13.0625 41.1875 C15.26392332 38.7484294 15.26392332 38.7484294 17.0625 36.1875 C18.7125 36.5175 20.3625 36.8475 22.0625 37.1875 C21.89392082 42.16058592 21.79970057 44.30285932 18.5625 48.1875 C15.24087524 50.54865495 12.19027148 50.84406233 8.18359375 50.62109375 C5.01839587 49.97406435 3.24505512 48.50646482 1.0625 46.1875 C-0.86846415 42.3255717 -0.35539673 37.53583457 -0.55859375 33.27734375 C-0.74615234 31.74787109 -0.74615234 31.74787109 -0.9375 30.1875 C-1.5975 29.8575 -2.2575 29.5275 -2.9375 29.1875 C-3.9275 29.5175 -4.9175 29.8475 -5.9375 30.1875 C-10.30256082 28.83829938 -12.30820566 27.9161566 -15.3125 24.4375 C-17.73006793 19.60236413 -18.18677394 15.96357685 -17.4375 10.625 C-14.015121 2.78204812 -8.17622256 0.04218897 0 0 Z M-4.9375 7.1875 C-7.37848846 8.94196046 -8.75864837 10.32489698 -9.37890625 13.31640625 C-9.50327781 15.75168158 -9.46652401 17.80470591 -8.9375 20.1875 C-6.6191144 22.79660963 -6.6191144 22.79660963 -3.9375 24.1875 C-2.6175 23.5275 -1.2975 22.8675 0.0625 22.1875 C0.0625 17.8975 0.0625 13.6075 0.0625 9.1875 C-2.4125 8.1975 -2.4125 8.1975 -4.9375 7.1875 Z " fill="#000000" transform="translate(314.9375,325.8125)"/>
<path d="M0 0 C3.79527229 10.43699878 2.75145193 22.01655793 -1.625 32.125 C-4.63767611 37.74566439 -9.34895305 41.67447653 -15 44.5 C-18.94052735 45.15675456 -22.20594553 45.40857112 -26 44 C-32.02392736 39.31622727 -34.45598169 32.2513717 -36 25 C-36.54290791 17.68968182 -36.54651307 9.60024261 -32.1875 3.4375 C-29.57546383 1.72101909 -28.06723058 1.6591966 -25 2 C-23.875 4.125 -23.875 4.125 -23 7 C-23.30550781 7.90492188 -23.61101562 8.80984375 -23.92578125 9.7421875 C-25.10847666 13.32898012 -25.30010408 16.23164 -25.3125 20 C-25.32925781 21.175625 -25.34601563 22.35125 -25.36328125 23.5625 C-24.87154259 28.21551102 -23.382046 31.5718858 -20.125 34.9375 C-18.01397542 36.19099747 -18.01397542 36.19099747 -15.4375 36 C-12.15610643 34.65378725 -11.45113173 33.1924898 -10 30 C-9.10857206 26.43204846 -8.93015065 23.25248463 -9.078125 19.5859375 C-9.10390625 18.57789063 -9.1296875 17.56984375 -9.15625 16.53125 C-9.21899729 14.41875804 -9.29724791 12.30667231 -9.390625 10.1953125 C-9.44831569 7.38289145 -9.46259966 4.77530649 -9 2 C-5.94283906 -0.87584662 -3.93366107 -1.60260266 0 0 Z " fill="#000000" transform="translate(252,316)"/>
<path d="M0 0 C2.6875 -0.375 2.6875 -0.375 6 0 C9.62861179 3.46734016 11.41020215 6.05693234 12 11 C11.70803496 18.90075092 11.11296739 26.45677475 5.63671875 32.54296875 C1.96454372 35.8119933 -0.6404852 36.97614886 -5.5625 37.0625 C-10.01218349 35.68714328 -11.4262502 33.82385685 -14 30 C-16.78003196 24.43993609 -17.16370263 18.5164962 -17.25 12.375 C-17.27578125 11.26898438 -17.3015625 10.16296875 -17.328125 9.0234375 C-16.96670486 5.69320904 -16.36365358 4.33558169 -14 2 C-11.4375 1.625 -11.4375 1.625 -9 2 C-6.5814438 4.4185562 -6.73409719 5.0809926 -6.65625 8.39453125 C-6.62660156 9.26787109 -6.59695313 10.14121094 -6.56640625 11.04101562 C-6.54449219 11.95560547 -6.52257812 12.87019531 -6.5 13.8125 C-6.45665985 21.65161544 -6.45665985 21.65161544 -4 29 C-2.03662758 28.8528686 -2.03662758 28.8528686 0 28 C3.15000366 22.16623871 3.42673892 16.3184152 2 10 C1.48006338 8.53377873 0.93834677 7.07509631 0.375 5.625 C-0.07875 4.42875 -0.5325 3.2325 -1 2 C-0.67 1.34 -0.34 0.68 0 0 Z " fill="#000000" transform="translate(346,324)"/>
<path d="M0 0 C4.20755961 3.05254325 5.70099117 5.23378044 6.875 10.25 C5.92684176 14.47361396 3.78271183 15.62739142 0.30078125 17.99609375 C-1.386121 19.04689977 -3.09580979 20.06109738 -4.8125 21.0625 C-5.4725 21.475 -6.1325 21.8875 -6.8125 22.3125 C-6.8125 22.9725 -6.8125 23.6325 -6.8125 24.3125 C-2.9271983 24.38721734 0.43694905 24.28486506 4.1875 23.3125 C4.8475 23.6425 5.5075 23.9725 6.1875 24.3125 C6 27.1875 6 27.1875 5.1875 30.3125 C1.16513955 33.07787281 -4.10364853 32.96142299 -8.8125 32.3125 C-13.43134954 30.22094549 -16.06738569 27.48393549 -18.12109375 22.9296875 C-19.79351832 16.59904083 -20.3195119 8.35964494 -17.390625 2.4375 C-13.17360672 -3.24086125 -5.90325854 -3.08920521 0 0 Z M-10.5 6.5 C-12.21614695 8.86991722 -12.04437108 10.45275666 -11.8125 13.3125 C-9.56374253 14.18100174 -9.56374253 14.18100174 -6.8125 14.3125 C-3.94077495 12.68203047 -3.94077495 12.68203047 -1.8125 10.3125 C-1.8125 9.3225 -1.8125 8.3325 -1.8125 7.3125 C-6.10303415 4.9097621 -6.10303415 4.9097621 -10.5 6.5 Z " fill="#000000" transform="translate(377.8125,329.6875)"/>
<path d="M0 0 C2.625 0.375 2.625 0.375 5 1 C5.33 2.65 5.66 4.3 6 6 C7.08918452 4.96437401 7.08918452 4.96437401 8.125 3.4375 C10.96391681 1.26099711 13.53858635 1.80407093 17 2 C21.36897711 10.73795422 21.59570325 20.34610314 21 30 C20 31 20 31 17 31.125 C14 31 14 31 13 30 C12.72962894 26.57529995 12.55370342 23.15760696 12.39453125 19.7265625 C12.53841351 16.05812952 12.53841351 16.05812952 11 13 C10.67386719 13.83144531 10.34773438 14.66289062 10.01171875 15.51953125 C9.57472656 16.60621094 9.13773437 17.69289063 8.6875 18.8125 C8.25824219 19.89144531 7.82898438 20.97039062 7.38671875 22.08203125 C6.14544027 24.6939609 5.29387252 26.28112485 3 28 C0.86254078 27.74853421 -0.45925779 27.54074221 -2 26 C-2.25256877 22.02724185 -2.18522451 18.04233825 -2.1875 14.0625 C-2.19974609 12.93908203 -2.21199219 11.81566406 -2.22460938 10.65820312 C-2.22654297 9.58634766 -2.22847656 8.51449219 -2.23046875 7.41015625 C-2.23457764 6.42152588 -2.23868652 5.43289551 -2.24291992 4.41430664 C-2 2 -2 2 0 0 Z " fill="#000000" transform="translate(258,330)"/>
<path d="M0 0 C2.0625 0.4375 2.0625 0.4375 4 1 C3.125 8.75 3.125 8.75 2 11 C6.72422966 10.78694807 6.72422966 10.78694807 10.5625 8.4375 C12 7 12 7 14.875 6.5 C19.04264312 7.1668229 20.49855033 8.66473378 23 12 C23.1875 14.0625 23.1875 14.0625 22 16 C18.9375 18.25 18.9375 18.25 16 20 C18.31 20.66 20.62 21.32 23 22 C22.67 22.99 22.34 23.98 22 25 C15.66482911 26.21830209 15.66482911 26.21830209 12.90625 25.3125 C10.46264228 23.630016 9.84375901 22.10939752 8.75 19.375 C8.24726563 18.14910156 8.24726563 18.14910156 7.734375 16.8984375 C7.49203125 16.27195312 7.2496875 15.64546875 7 15 C5.35 15.33 3.7 15.66 2 16 C2.33 21.28 2.66 26.56 3 32 C1.68 32.66 0.36 33.32 -1 34 C-3.61281488 28.12116651 -3.18328202 22.29268272 -3 16 C-4.65 16.33 -6.3 16.66 -8 17 C-8.33 15.68 -8.66 14.36 -9 13 C-7.02 12.34 -5.04 11.68 -3 11 C-2.86722656 10.28972656 -2.73445313 9.57945312 -2.59765625 8.84765625 C-2.42105469 7.92855469 -2.24445313 7.00945312 -2.0625 6.0625 C-1.88847656 5.14597656 -1.71445312 4.22945313 -1.53515625 3.28515625 C-1 1 -1 1 0 0 Z M13 12 C13.33 13.32 13.66 14.64 14 16 C15.32 15.34 16.64 14.68 18 14 C17.67 13.34 17.34 12.68 17 12 C15.68 12 14.36 12 13 12 Z " fill="#000000" transform="translate(341,281)"/>
<path d="M0 0 C1.32 0.33 2.64 0.66 4 1 C3.34 4.3 2.68 7.6 2 11 C3.65 10.67 5.3 10.34 7 10 C7.5625 11.9375 7.5625 11.9375 8 14 C7 15 7 15 4.4375 15.0625 C3.633125 15.041875 2.82875 15.02125 2 15 C2.12568359 16.80597656 2.12568359 16.80597656 2.25390625 18.6484375 C2.3570641 20.22393916 2.45991266 21.79946109 2.5625 23.375 C2.61857422 24.1690625 2.67464844 24.963125 2.73242188 25.78125 C3.11328125 31.7734375 3.11328125 31.7734375 2 34 C1.01 34 0.02 34 -1 34 C-2.585869 30.828262 -2.37866445 27.36486178 -2.5625 23.875 C-2.60568359 23.12089844 -2.64886719 22.36679687 -2.69335938 21.58984375 C-2.7994832 19.72678112 -2.90025001 17.86341476 -3 16 C-10.08630655 17.16037766 -10.08630655 17.16037766 -16 21 C-13.69 21 -11.38 21 -9 21 C-9.33 22.32 -9.66 23.64 -10 25 C-13.1875 25.8125 -13.1875 25.8125 -17 26 C-20.20082983 23.49500274 -21.7127358 21.8617926 -23 18 C-23.3525877 14.12153534 -23.52749908 11.84399853 -21.4375 8.5 C-19 7 -19 7 -15.4375 7.0625 C-10.82142857 8.32142857 -10.82142857 8.32142857 -9 11 C-9 11.66 -9 12.32 -9 13 C-5.91841857 12.08632697 -5.91841857 12.08632697 -3 10 C-2.22457323 7.31075397 -2.17900304 4.81929782 -2 2 C-1.34 1.34 -0.68 0.68 0 0 Z M-17 11 C-17.66 12.32 -18.32 13.64 -19 15 C-18.01 15.33 -17.02 15.66 -16 16 C-15.34 15.67 -14.68 15.34 -14 15 C-14 14.01 -14 13.02 -14 12 C-14.99 11.67 -15.98 11.34 -17 11 Z " fill="#000000" transform="translate(323,281)"/>
<path d="M0 0 C-0.125 2.25 -0.125 2.25 -1 5 C-2.5159375 5.9590625 -2.5159375 5.9590625 -4.0625 6.9375 C-5.031875 7.618125 -6.00125 8.29875 -7 9 C-7.58442963 12.12762267 -7.58442963 12.12762267 -7 15 C-5.96298597 16.26626225 -5.96298597 16.26626225 -3.6875 16.0625 C-2.3571875 16.0315625 -2.3571875 16.0315625 -1 16 C0.32 16 1.64 16 3 16 C2.6875 17.875 2.6875 17.875 2 20 C-1.42389615 22.28259743 -3.07170017 22.17050421 -7.05859375 21.5390625 C-9.99304438 20.72426534 -11.32510396 19.51234406 -13 17 C-13.25 14.25 -13.25 14.25 -13 12 C-14.134375 12.61875 -15.26875 13.2375 -16.4375 13.875 C-17.07558594 14.22304688 -17.71367187 14.57109375 -18.37109375 14.9296875 C-20.16618315 15.91410024 -20.16618315 15.91410024 -21 18 C-17.535 17.505 -17.535 17.505 -14 17 C-14.33 18.32 -14.66 19.64 -15 21 C-20.625 22.125 -20.625 22.125 -24 21 C-24 20.34 -24 19.68 -24 19 C-24.66 19 -25.32 19 -26 19 C-27.99874583 14.87758672 -28.4979154 11.56422451 -28 7 C-25.92907224 3.89360836 -24.71090051 3.15125543 -21.0625 2.375 C-16.63430375 3.27871352 -15.57195182 5.36900919 -13 9 C-12.608125 8.2575 -12.21625 7.515 -11.8125 6.75 C-8.6927289 2.0165542 -5.84875895 -0.66842959 0 0 Z M-22 7 C-22.66 8.32 -23.32 9.64 -24 11 C-23.01 11.33 -22.02 11.66 -21 12 C-20.34 11.67 -19.68 11.34 -19 11 C-19 10.01 -19 9.02 -19 8 C-19.99 7.67 -20.98 7.34 -22 7 Z " fill="#000000" transform="translate(297,285)"/>
<path d="M0 0 C3.22365852 1.06176054 4.91371937 3.03294397 6.96875 5.6484375 C7.29875 6.6384375 7.62875 7.6284375 7.96875 8.6484375 C7.288125 9.3496875 6.6075 10.0509375 5.90625 10.7734375 C3.73047132 13.36942464 3.73047132 13.36942464 4.109375 15.796875 C4.64779141 18.11206557 5.28169629 20.37334349 5.96875 22.6484375 C6.30861667 24.31378417 6.64577486 25.97973263 6.96875 27.6484375 C4.71875 27.7109375 4.71875 27.7109375 1.96875 26.6484375 C-0.05523511 23.33763757 -2.03125 19.58520901 -2.03125 15.6484375 C-3.02125 15.6484375 -4.01125 15.6484375 -5.03125 15.6484375 C-4.70125 19.2784375 -4.37125 22.9084375 -4.03125 26.6484375 C-5.35125 26.9784375 -6.67125 27.3084375 -8.03125 27.6484375 C-9.80805192 23.82796223 -10.27769293 20.84946068 -10.21875 16.6484375 C-10.20908203 15.1325 -10.20908203 15.1325 -10.19921875 13.5859375 C-10.03125 10.6484375 -10.03125 10.6484375 -9.45703125 7.9609375 C-8.81188545 5.50188836 -8.81188545 5.50188836 -10.03125 2.6484375 C-6.92504774 -0.58718985 -4.36158676 -0.73235599 0 0 Z M-3.03125 4.6484375 C-3.36125 6.6284375 -3.69125 8.6084375 -4.03125 10.6484375 C-1.61505177 10.89874727 -1.61505177 10.89874727 0.96875 10.6484375 C1.62875 9.6584375 2.28875 8.6684375 2.96875 7.6484375 C0.29627366 5.30556332 0.29627366 5.30556332 -3.03125 4.6484375 Z " fill="#000000" transform="translate(262.03125,279.3515625)"/>
<path d="M0 0 C1.32 0 2.64 0 4 0 C6.37426937 4.74853874 5.28037709 10.81464632 3.875 15.75 C2.16416781 20.3363154 0.18412836 22.45670629 -4 25 C-7.0625 25.625 -7.0625 25.625 -10 25 C-13.10164769 22.44975635 -14.72566416 20.82300753 -16 17 C-16.14449151 15.02435647 -16.22061999 13.04320239 -16.25 11.0625 C-16.28867188 9.50208984 -16.28867188 9.50208984 -16.328125 7.91015625 C-15.96423357 4.68278581 -15.16358594 3.36286359 -13 1 C-11.68 1.33 -10.36 1.66 -9 2 C-9.10699219 2.72445313 -9.21398437 3.44890625 -9.32421875 4.1953125 C-10.04915695 10.04158831 -10.45009602 13.89385789 -7 19 C-5.01508358 18.73323796 -5.01508358 18.73323796 -3 18 C-1.63106057 13.8931817 -2.02852691 10.10888172 -2.16015625 5.8125 C-2 3 -2 3 0 0 Z " fill="#000000" transform="translate(209,281)"/>
<path d="M0 0 C2.5 0.25 2.5 0.25 4.5 2.25 C4.31568665 4.84822372 4.02995507 7.31028457 3.625 9.875 C2.97107983 14.17795617 2.44237478 18.2879454 2.5546875 22.6484375 C2.5 26.25 2.5 26.25 0.5 28.25 C-2 28.5625 -2 28.5625 -4.5 28.25 C-6.52186033 25.21720951 -6.75474783 24.60219748 -6.765625 21.1953125 C-6.76820313 20.41542969 -6.77078125 19.63554687 -6.7734375 18.83203125 C-6.76570313 18.02121094 -6.75796875 17.21039063 -6.75 16.375 C-6.75773437 15.57191406 -6.76546875 14.76882813 -6.7734375 13.94140625 C-6.72971943 0.67297194 -6.72971943 0.67297194 0 0 Z " fill="#000000" transform="translate(291.5,330.75)"/>
<path d="M0 0 C4.06405664 0.82939931 5.5979605 2.33894734 8.0625 5.625 C8.25 7.6875 8.25 7.6875 7.0625 9.625 C4 11.875 4 11.875 1.0625 13.625 C3.3703491 14.77892455 5.53480331 15.15937166 8.0625 15.625 C7.7325 16.615 7.4025 17.605 7.0625 18.625 C0.8451087 19.82065217 0.8451087 19.82065217 -2.1875 19.0625 C-5.60010745 16.25928674 -6.76371832 12.84147177 -7.375 8.5625 C-6.65612505 3.73576818 -4.87292553 1.03679267 0 0 Z M-1.9375 5.625 C-1.9375 6.945 -1.9375 8.265 -1.9375 9.625 C-0.6175 9.295 0.7025 8.965 2.0625 8.625 C2.0625 7.635 2.0625 6.645 2.0625 5.625 C0.7425 5.625 -0.5775 5.625 -1.9375 5.625 Z " fill="#000000" transform="translate(235.9375,287.375)"/>
<path d="M0 0 C0.598125 0.33 1.19625 0.66 1.8125 1 C4.59642818 2.27265288 6.10918261 1.80300483 9 1 C11.10428384 6.12919186 11.21755666 10.5610835 11 16 C9.0625 16.5625 9.0625 16.5625 7 17 C5.03177114 15.03177114 5.33751619 11.65191291 5 9 C4.01 10.98 3.02 12.96 2 15 C0.68 15 -0.64 15 -2 15 C-2 10.38 -2 5.76 -2 1 C-1.34 0.67 -0.68 0.34 0 0 Z " fill="#000000" transform="translate(217,289)"/>
<path d="M0 0 C0.721875 0.391875 1.44375 0.78375 2.1875 1.1875 C2.41167836 3.9523665 2.50983508 5.65027487 1.0625 8.0625 C-0.8125 9.1875 -0.8125 9.1875 -3.9375 8.9375 C-6.8125 8.1875 -6.8125 8.1875 -7.8125 7.1875 C-8.1875 4.8125 -8.1875 4.8125 -7.8125 2.1875 C-4.92923603 -0.36624809 -3.76371099 -1.08729429 0 0 Z " fill="#000000" transform="translate(294.8125,317.8125)"/>
<path d="M0 0 C2.625 0.625 2.625 0.625 5 2 C6 3.875 6 3.875 6 6 C4.5625 8.25 4.5625 8.25 3 10 C-1.75 9.25 -1.75 9.25 -4 7 C-3.8125 4.5 -3.8125 4.5 -3 2 C-2.01 1.34 -1.02 0.68 0 0 Z " fill="#000000" transform="translate(159,143)"/>
<path d="M0 0 C1 1 1 1 1.0625 4.0625 C1.041875 5.031875 1.02125 6.00125 1 7 C-0.65 7.66 -2.3 8.32 -4 9 C-5.65 7.35 -7.3 5.7 -9 4 C-6.7570644 -0.96650025 -5.24855251 -1.3457827 0 0 Z " fill="#000000" transform="translate(130,153)"/>
</svg>
