<?xml version="1.0" encoding="UTF-8"?>
<svg version="1.1" xmlns="http://www.w3.org/2000/svg" width="410" height="430">
<path d="M0 0 C0.79661673 2.16485157 1.58704361 4.33198125 2.375 6.5 C2.81585938 7.7065625 3.25671875 8.913125 3.7109375 10.15625 C4.84335123 13.39314208 5.6843111 16.64970135 6.48193359 19.98242188 C7.00562054 22.02188886 7.62372997 24.00253799 8.2890625 26 C8.61777344 26.99 8.61777344 26.99 8.953125 28 C9.40184013 29.33571014 9.85760692 30.6690716 10.3203125 32 C12.45349701 38.50113375 13.17328303 44.65343393 10 51 C9.34 51 8.68 51 8 51 C7.67 51.99 7.34 52.98 7 54 C-3.32406888 61.52182161 -20.64901221 61.35049075 -33 63 C-36.12853621 76.44801122 -39.22755918 89.90271135 -42.25 103.375 C-42.49572754 104.45950439 -42.74145508 105.54400879 -42.99462891 106.66137695 C-45.45685417 117.693877 -47.38905294 127.92034496 -46.6875 139.25 C-46.58844926 141.4205687 -46.48949611 143.59114186 -46.390625 145.76171875 C-46.16129498 150.27460602 -45.88179351 154.78096504 -45.56694031 159.28842163 C-45.37417658 162.17008428 -45.21588671 165.0531152 -45.06289673 167.93713379 C-44.98003639 169.34154499 -44.88181215 170.74514331 -44.76742554 172.14733887 C-43.8705271 183.22306493 -43.8705271 183.22306493 -46.65332031 187.60107422 C-48.66615867 189.64887387 -50.66589056 191.33377444 -53 193 C-53.66233643 193.52086182 -54.32467285 194.04172363 -55.00708008 194.57836914 C-59.50285506 198 -59.50285506 198 -62 198 C-62 198.99 -62 199.98 -62 201 C-63.25341797 202.3503418 -63.25341797 202.3503418 -64.9921875 203.69921875 C-65.61480469 204.18583984 -66.23742187 204.67246094 -66.87890625 205.17382812 C-67.53761719 205.67333984 -68.19632812 206.17285156 -68.875 206.6875 C-69.85146484 207.45416992 -69.85146484 207.45416992 -70.84765625 208.23632812 C-75.72183745 212 -75.72183745 212 -78 212 C-78.33 212.99 -78.66 213.98 -79 215 C-79.66 215 -80.32 215 -81 215 C-81 215.66 -81 216.32 -81 217 C-82.53125 218.2890625 -82.53125 218.2890625 -84.5 219.625 C-85.1496875 220.07101562 -85.799375 220.51703125 -86.46875 220.9765625 C-86.9740625 221.31429687 -87.479375 221.65203125 -88 222 C-92.52615993 218.32167983 -96.39424999 214.58913637 -100 210 C-99.525625 209.566875 -99.05125 209.13375 -98.5625 208.6875 C-96.76313043 206.97690387 -96.76313043 206.97690387 -96 204 C-95.34 204 -94.68 204 -94 204 C-93.6596875 203.195625 -93.6596875 203.195625 -93.3125 202.375 C-91.54429911 199.17539839 -89.46329797 196.70962777 -87 194 C-86.34 194 -85.68 194 -85 194 C-84.62294922 193.16275391 -84.62294922 193.16275391 -84.23828125 192.30859375 C-82.80320675 189.63310785 -81.09235159 187.4262642 -79.1875 185.0625 C-78.12789062 183.74185547 -78.12789062 183.74185547 -77.046875 182.39453125 C-75.41690871 180.48771954 -73.82687766 178.87932287 -71.9375 177.25 C-71.298125 176.5075 -70.65875 175.765 -70 175 C-70.39465591 169.9301894 -72.15359859 165.26844831 -73.8125 160.5 C-76.46544859 152.72687664 -78.81503089 144.91863189 -81 137 C-84.97946292 138.26990689 -88.95851539 139.54109529 -92.9375 140.8125 C-94.05447266 141.16892578 -95.17144531 141.52535156 -96.32226562 141.89257812 C-98.52159354 142.5955891 -100.72001993 143.30142747 -102.91748047 144.01025391 C-104.87148536 144.63765259 -106.82854327 145.25568384 -108.78955078 145.86083984 C-110.87800029 146.51836833 -112.94249852 147.25123252 -115 148 C-116.6325069 151.26501379 -116.22162359 154.88093916 -116.28125 158.47265625 C-116.29965942 159.31090439 -116.31806885 160.14915253 -116.33703613 161.01280212 C-116.41587464 164.60809322 -116.48360156 168.20357436 -116.55224609 171.79907227 C-116.60384578 174.41953162 -116.66113706 177.03982336 -116.71875 179.66015625 C-116.73232544 180.47992447 -116.74590088 181.29969269 -116.7598877 182.14430237 C-116.88717394 187.88717394 -116.88717394 187.88717394 -118 189 C-120.52596259 189.23653523 -123.03107207 189.42173692 -125.5625 189.5625 C-126.62887695 189.62727539 -126.62887695 189.62727539 -127.71679688 189.69335938 C-129.47761912 189.79971777 -131.2387832 189.90038846 -133 190 C-134.95533199 182.24881848 -135.90232023 174.43524883 -136.80493164 166.50878906 C-137.06042415 164.26820447 -137.32355992 162.02861975 -137.58789062 159.7890625 C-138.58937755 151.20407629 -139.41924628 142.62565173 -140 134 C-134.67529959 130.53727177 -129.37784337 127.1410599 -123.75 124.1875 C-118.40747129 121.34377238 -113.444964 118.04763635 -108.47753906 114.60229492 C-104.71214876 112.02111477 -100.9130005 109.85444619 -96.78588867 107.89892578 C-94.74049941 106.91466231 -94.74049941 106.91466231 -92 105 C-91.04172863 102.24230186 -91.04172863 102.24230186 -90.4296875 98.96875 C-90.04490234 97.16470703 -90.04490234 97.16470703 -89.65234375 95.32421875 C-89.26755859 93.43123047 -89.26755859 93.43123047 -88.875 91.5 C-88.35359841 89.00998948 -87.83026016 86.52038346 -87.3046875 84.03125 C-87.07765137 82.92330078 -86.85061523 81.81535156 -86.61669922 80.67382812 C-86 78 -86 78 -85 76 C-89.92321287 78.58052462 -94.59318135 81.33740207 -99.125 84.5625 C-100.74956157 85.70895485 -102.37452498 86.85484063 -104 88 C-104.61746094 88.44085938 -105.23492187 88.88171875 -105.87109375 89.3359375 C-109.78858813 91.88728488 -113.19718714 92.7311023 -117.7890625 92.51953125 C-122.93011504 91.31147474 -126.01131446 87.4032956 -128.9375 83.25 C-130 81 -130 81 -130 79 C-130.66 79 -131.32 79 -132 79 C-133.8915307 76.78581383 -135.67649679 74.56433016 -137.4375 72.25 C-138.17323242 71.29867187 -138.17323242 71.29867187 -138.92382812 70.328125 C-139.87142434 69.10046998 -140.81479678 67.86954032 -141.75341797 66.63500977 C-142.77021171 65.30138899 -143.80621422 63.98243152 -144.84765625 62.66796875 C-146 61 -146 61 -146 59.0625 C-144.54743477 56.06658421 -142.4830196 54.18021233 -140 52 C-139.34 52 -138.68 52 -138 52 C-138 51.34 -138 50.68 -138 50 C-134.08670547 50.54645104 -132.41281015 52.29935613 -129.75 55.125 C-124.85159875 60.19314782 -119.87928759 65.08047494 -114 69 C-113.20335937 68.37351562 -112.40671875 67.74703125 -111.5859375 67.1015625 C-110.5159564 66.27561218 -109.44562513 65.45011535 -108.375 64.625 C-107.85292969 64.2125 -107.33085938 63.8 -106.79296875 63.375 C-103.33495522 60.72812544 -100.19517639 59.14642958 -96 58 C-96 57.34 -96 56.68 -96 56 C-94.02515044 54.60917608 -92.0719144 53.35534211 -90 52.125 C-88.88625 51.44695312 -87.7725 50.76890625 -86.625 50.0703125 C-73.09807365 42.21949969 -58.68600432 38.15114993 -43 38 C-42.00774414 37.98630371 -41.01548828 37.97260742 -39.99316406 37.95849609 C-17.55964387 37.6879378 -17.55964387 37.6879378 -9 39 C-9.17390259 38.16359985 -9.17390259 38.16359985 -9.35131836 37.31030273 C-11.70564903 25.85632518 -13.64042592 14.7041364 -14 3 C-12.4188708 2.49307308 -10.83498617 1.99473557 -9.25 1.5 C-7.92742187 1.08234375 -7.92742187 1.08234375 -6.578125 0.65625 C-4 0 -4 0 0 0 Z " fill="#000000" transform="translate(200,151)"/>
<path d="M0 0 C2.49146805 0.9115127 3.71056877 1.57055171 5.203125 3.78515625 C5.54859375 4.53667969 5.8940625 5.28820312 6.25 6.0625 C6.88035156 7.40248047 6.88035156 7.40248047 7.5234375 8.76953125 C8.25433594 10.36861328 8.25433594 10.36861328 9 12 C9.94595129 14.02400421 10.89691849 16.04560856 11.84814453 18.06713867 C12.54066557 19.539281 13.23171424 21.01211673 13.92138672 22.4855957 C16.55028661 28.09085148 19.26071055 33.64360195 22.15625 39.1171875 C23.66023543 42.09170105 24.73411297 45.09496219 25.78125 48.2578125 C28.65521404 56.34493172 31.59166096 63.02915623 39.18359375 67.578125 C47.60040396 71.51558792 55.72236294 73.39293906 64.7716217 70.48110962 C74.83787467 66.79698313 84.0804408 61.40596222 93.20703125 55.84375 C98.06307448 52.89150486 103.07032625 50.45347719 108.25 48.125 C109.10851562 47.7228125 109.96703125 47.320625 110.8515625 46.90625 C119.00427786 43.21871413 119.00427786 43.21871413 124 44 C126.98824051 45.64133965 129.46183418 47.92366836 131 51 C131.47917463 53.94350127 131.46369873 56.06849902 130.1171875 58.7734375 C126.2375696 64.09339258 121.30149764 65.71719765 115.234375 67.82421875 C111.66273697 69.12260407 108.56946658 70.77856325 105.296875 72.68359375 C98.7824384 76.41720793 92.02474997 79.63606696 85.0625 82.4375 C80.65331526 84.26739881 76.29422225 86.16286405 72 88.25 C70.948125 88.75015625 69.89625 89.2503125 68.8125 89.765625 C62.37463325 94.88015247 60.74012678 104.49397975 58.3125 112.0625 C55.49806939 120.68925399 52.48251004 129.20868641 49.25 137.6875 C46.18756584 145.73040566 43.4205474 153.74031218 41 162 C39.25932506 167.54796795 37.51864274 173.03524553 35.0625 178.3125 C32.95439281 182.86766495 31.40970638 187.5818901 29.85791016 192.34643555 C28.62354442 196.13634634 27.32980078 199.89035791 25.9375 203.625 C24.57158048 207.32324059 23.36977208 211.032658 22.25 214.8125 C20.32552655 221.11077673 18.23458186 227.34534584 16.0625 233.5625 C15.73862305 234.52712158 15.41474609 235.49174316 15.08105469 236.4855957 C11.91987226 245.3844655 11.91987226 245.3844655 7 248 C3.27477531 248.7186249 -0.25545851 248.58274066 -4 248 C-7.16620095 245.81381363 -7.7896387 244.63108389 -9 241 C-9.5100549 234.917405 -8.00975564 230.47994913 -5.8125 224.9375 C-5.16867111 223.25543776 -4.5254469 221.57314396 -3.8828125 219.890625 C-3.56344727 219.06498047 -3.24408203 218.23933594 -2.91503906 217.38867188 C-1.61929295 214.00617989 -0.40026075 210.600659 0.8125 207.1875 C1.19019531 206.12917969 1.56789062 205.07085937 1.95703125 203.98046875 C2.62875765 202.06089107 3.28738018 200.13665197 3.9296875 198.20703125 C5.34830241 193.95636393 6.83009928 189.72877692 8.3125 185.5 C8.62155273 184.61795898 8.93060547 183.73591797 9.24902344 182.82714844 C16.25229476 162.8623822 16.25229476 162.8623822 20 153 C17.69 152.34 15.38 151.68 13 151 C12.76216797 151.804375 12.76216797 151.804375 12.51953125 152.625 C11.68772845 155.41912211 10.84365927 158.20943471 10 161 C9.67128906 162.10472656 9.34257812 163.20945312 9.00390625 164.34765625 C5.44262642 176.06660821 1.2562072 187.54412961 -2.93066406 199.05175781 C-4.41054965 203.13191727 -5.86726719 207.21995573 -7.3125 211.3125 C-7.55202393 211.98764648 -7.79154785 212.66279297 -8.03833008 213.35839844 C-9.48003644 217.44501303 -10.817022 221.55651155 -12.125 225.6875 C-13.80602637 230.75141828 -15.43441476 235.05369396 -19.8125 238.375 C-23.09839593 239.31382741 -25.59821435 239.41776315 -29 239 C-31.8125 236.625 -31.8125 236.625 -34 234 C-34.66 233.34 -35.32 232.68 -36 232 C-36.87841795 225.34912125 -34.86752319 220.54038667 -32.359375 214.41796875 C-31.07212136 211.18133963 -30.00086432 207.95984709 -29 204.625 C-23.24829932 185.46812596 -23.24829932 185.46812596 -19.03125 176.421875 C-16.25473745 169.90127734 -14.17997184 163.02195559 -12.18603516 156.22558594 C-9.18085153 146.08605527 -5.35738169 136.32217217 -1.48535156 126.49121094 C1.56293474 118.73408015 4.42287264 111.21492712 6 103 C6.55032296 101.65270634 7.13160683 100.31743897 7.75 99 C9.84805768 94.50074322 11.60954468 89.90988704 13.3125 85.25 C13.59125977 84.51652344 13.87001953 83.78304687 14.15722656 83.02734375 C16.25968316 77.18214041 15.90760283 73.94747555 13.3984375 68.28515625 C12.73006043 66.87469636 12.05523284 65.46728052 11.375 64.0625 C11.0145459 63.30743164 10.6540918 62.55236328 10.28271484 61.77441406 C7.56758089 56.11022692 4.75695889 50.49566038 1.9296875 44.88671875 C-0.52542244 39.97518317 -2.88681871 35.01874737 -5.25 30.0625 C-5.67458496 29.17401367 -6.09916992 28.28552734 -6.53662109 27.37011719 C-13.69352434 12.31701994 -13.69352434 12.31701994 -13 7 C-9.99321504 0.70006961 -6.83017274 -0.47931037 0 0 Z " fill="#000000" transform="translate(234,165)"/>
<path d="M0 0 C0.56460938 0.46019531 1.12921875 0.92039062 1.7109375 1.39453125 C0.34110247 4.55568901 -0.2781263 5.38724045 -3.2890625 7.39453125 C-5.33984375 7.44140625 -5.33984375 7.44140625 -7.6015625 7.14453125 C-8.34019531 7.056875 -9.07882813 6.96921875 -9.83984375 6.87890625 C-12.75826879 6.30173766 -15.48561608 5.38160329 -18.2890625 4.39453125 C-17.84254372 12.54937428 -17.17755927 20.43717593 -15.2890625 28.39453125 C-14.30164063 28.37132812 -13.31421875 28.348125 -12.296875 28.32421875 C-11.01554687 28.30617187 -9.73421875 28.288125 -8.4140625 28.26953125 C-7.13789062 28.24632812 -5.86171875 28.223125 -4.546875 28.19921875 C-1.2890625 28.39453125 -1.2890625 28.39453125 0.7109375 30.39453125 C0.4609375 32.95703125 0.4609375 32.95703125 -0.2890625 35.39453125 C-3.18268899 36.84134449 -6.0973634 36.82695501 -9.29296875 37.11328125 C-11.28489381 37.18985137 -11.28489381 37.18985137 -12.2890625 38.39453125 C-11.97770207 42.83141736 -11.36689212 46.47336896 -9.6640625 50.58203125 C-8.34405057 53.87559042 -7.88341688 55.98082046 -9.2890625 59.39453125 C-12.2890625 61.39453125 -12.2890625 61.39453125 -14.7265625 61.33203125 C-18.37636674 59.99673702 -19.29827972 58.77886197 -21.2890625 55.39453125 C-22.21987497 52.3290555 -22.9779767 49.263195 -23.67578125 46.13671875 C-24.25599667 43.32448005 -24.25599667 43.32448005 -25.2890625 40.39453125 C-28.80097059 39.16483247 -28.80097059 39.16483247 -32.2890625 38.39453125 C-32.6190625 37.07453125 -32.9490625 35.75453125 -33.2890625 34.39453125 C-29.5390625 31.39453125 -29.5390625 31.39453125 -27.2890625 31.39453125 C-27.47082031 30.42012085 -27.47082031 30.42012085 -27.65625 29.42602539 C-28.20878474 26.4378219 -28.74898809 23.44751082 -29.2890625 20.45703125 C-29.47984375 19.43544922 -29.670625 18.41386719 -29.8671875 17.36132812 C-30.95596555 11.27583652 -31.65725363 5.57889405 -31.2890625 -0.60546875 C-24.64228085 -8.48313589 -7.43023434 -5.2113077 0 0 Z " fill="#000000" transform="translate(92.2890625,38.60546875)"/>
<path d="M0 0 C1.65 0.33 3.3 0.66 5 1 C5.07476562 1.69222656 5.14953125 2.38445312 5.2265625 3.09765625 C7.89495308 22.95362143 17.71410591 37.55859226 32 51 C36.1370567 49.68991765 36.1370567 49.68991765 40.0625 47.875 C42.47427566 46.78581099 44.37988823 46.93976755 47 47 C47.18175781 48.12277344 47.36351562 49.24554688 47.55078125 50.40234375 C48.84146894 58.16467303 50.16025827 65.62943439 53 73 C53.66666667 75 54.33333333 77 55 79 C52.75710082 80.41219578 51.47317905 81.04790623 48.80078125 80.77734375 C45.24428854 79.79025582 42.11118559 78.23545989 38.875 76.5 C38.22136475 76.15195313 37.56772949 75.80390625 36.89428711 75.4453125 C30.63686926 71.99842331 25.31790145 67.77616097 20 63 C20.30859375 60.61328125 20.30859375 60.61328125 21 58 C24.0625 56.1875 24.0625 56.1875 27 55 C26.360625 54.360625 25.72125 53.72125 25.0625 53.0625 C24.60875 52.60359375 24.155 52.1446875 23.6875 51.671875 C22.4366585 50.43261536 21.16191749 49.21737884 19.875 48.015625 C14.41416884 42.8130764 10.53432576 37.6449458 7 31 C6.55914062 30.24332031 6.11828125 29.48664063 5.6640625 28.70703125 C2.82315762 23.56757607 1.06050983 18.33739336 -0.4375 12.6875 C-0.62586426 12.0054248 -0.81422852 11.32334961 -1.00830078 10.62060547 C-2.04503262 6.40414756 -2.08797336 3.84157376 0 0 Z " fill="#000000" transform="translate(33,70)"/>
<path d="M0 0 C3.20139927 3.30811258 4.99457107 7.28553385 5.00390625 11.953125 C4.38939217 18.52466334 1.89876002 24.16401176 -2.94140625 28.7265625 C-8.12758837 31.93471311 -14.7517975 32.65154282 -20.66796875 31.46484375 C-26.05869701 29.37898407 -29.58638313 26.25787907 -32 21 C-34.04452188 15.22446124 -34.64165369 10.4750085 -32.0546875 4.8203125 C-29.60092052 0.58529245 -26.81395612 -3.39534796 -22 -5 C-13.3259239 -7.16851902 -6.87447771 -5.36622047 0 0 Z M-26 15 C-25.74895913 19.26769478 -25.40348094 21.49837505 -22.6875 24.875 C-19.65685176 27.37914743 -19.65685176 27.37914743 -16 28 C-12.80376352 27.12949221 -12.80376352 27.12949221 -10 26 C-11.50597677 21.74561563 -14.16747758 20.40579386 -18 18.25 C-19.0725 17.63640625 -20.145 17.0228125 -21.25 16.390625 C-23.78386113 14.84957823 -23.78386113 14.84957823 -26 15 Z " fill="#000000" transform="translate(302,200)"/>
<path d="M0 0 C3.4549231 1.65548398 4.90811081 3.26092752 7 6.4375 C9.8359164 14.9452492 9.05159978 26.42519356 5.1171875 34.4296875 C4.74851562 35.09226563 4.37984375 35.75484375 4 36.4375 C3.46375 37.530625 2.9275 38.62375 2.375 39.75 C-1.09374301 43.67515656 -5.07369993 45.7355453 -10 47.4375 C-13.79378385 47.50908083 -15.3965904 46.79667238 -18.625 44.875 C-26.22667701 37.07327886 -27.35093254 26.54021773 -27.3125 16.125 C-27.32861328 15.23232422 -27.34472656 14.33964844 -27.36132812 13.41992188 C-27.36197266 12.56333984 -27.36261719 11.70675781 -27.36328125 10.82421875 C-27.36626221 10.05295654 -27.36924316 9.28169434 -27.37231445 8.48706055 C-26.90442352 5.91135931 -26.01450641 5.05533588 -24 3.4375 C-21.3213698 2.18747257 -20.24604675 2.35845331 -17.41015625 3.26953125 C-14.5527766 5.83978361 -14.60605336 6.49155932 -14.36328125 10.19140625 C-14.32203671 12.12723883 -14.30612653 14.06373858 -14.3125 16 C-14.24739882 23.3964961 -13.7226335 30.226499 -12 37.4375 C-7.62829816 35.4945214 -5.64505684 33.12225863 -3.73046875 28.87890625 C-1.83273245 22.53620471 -1.87918945 15.89610278 -5 10 C-5.36609375 9.38253906 -5.7321875 8.76507813 -6.109375 8.12890625 C-7.30779541 5.85295872 -7.31520465 3.9591372 -7 1.4375 C-4.32351391 -0.41545191 -3.26009957 -0.61126867 0 0 Z " fill="#000000" transform="translate(122,49.5625)"/>
<path d="M0 0 C4.30710233 4.00226175 6.39654181 7.63074637 6.625 13.5625 C6.29732517 18.81986062 5.28599535 21.87144173 2 26 C-2.89102443 29.89285618 -7.04337017 30.74187775 -13.2734375 30.52734375 C-17.78209632 29.65532521 -20.84620719 27.24864373 -24 24 C-27.2682925 19.09756125 -27.47606617 13.47554407 -26.375 7.75 C-23.82344043 2.64688085 -21.33212997 -0.72082965 -16.0625 -2.9375 C-10.07668756 -4.83544053 -5.19567747 -3.3555417 0 0 Z M-14.625 18.5 C-15.33140625 18.54769531 -16.0378125 18.59539062 -16.765625 18.64453125 C-18.51045701 18.7624253 -20.25523386 18.88113515 -22 19 C-20.66901721 22.04675207 -20.10145526 22.93461772 -17.1875 24.8125 C-13.71772365 26.10516178 -12.40860091 26.34550036 -9 25 C-6.64477775 23.2287382 -6.64477775 23.2287382 -5 21 C-5 20.01 -5 19.02 -5 18 C-8.21568256 18 -11.41803865 18.28107459 -14.625 18.5 Z " fill="#000000" transform="translate(147,155)"/>
<path d="M0 0 C0 2.31 0 4.62 0 7 C1.30052038 5.74662007 1.30052038 5.74662007 3.25 3 C5.00989654 0.91138715 5.97940993 0.00978028 8.5 -1.1875 C11 -1 11 -1 13.6875 1 C19.46346307 8.49314128 19.08343488 18.84347732 19.25 27.9375 C19.27578125 29.22527344 19.3015625 30.51304688 19.328125 31.83984375 C19.21984375 32.88269531 19.1115625 33.92554688 19 35 C15.77208445 37.1519437 14.71599191 37.20086443 11 37 C9.11774465 32.04919391 8.4150667 27.34859599 7.875 22.125 C7.78863281 21.34125 7.70226562 20.5575 7.61328125 19.75 C7.4029851 17.83396841 7.20067256 15.9170634 7 14 C6.54109375 15.12019531 6.0821875 16.24039063 5.609375 17.39453125 C4.99018941 18.86744243 4.3703641 20.3400848 3.75 21.8125 C3.44964844 22.55048828 3.14929688 23.28847656 2.83984375 24.04882812 C-0.18157422 31.15237462 -0.18157422 31.15237462 -4 33 C-6.75 32.1875 -6.75 32.1875 -9 31 C-9.79777713 24.7175051 -10.13314404 18.51385469 -10.1875 12.1875 C-10.20039063 11.45861572 -10.21328125 10.72973145 -10.2265625 9.97875977 C-10.23405386 5.90673645 -10.04862134 2.57317676 -8 -1 C-4.37673261 -2.2077558 -3.35853631 -1.54311128 0 0 Z " fill="#000000" transform="translate(143,60)"/>
<path d="M0 0 C0.71511973 12.34858538 1.14420386 24.63051353 1 37 C-5.3659938 35.78365228 -11.19239461 33.94301822 -17.1875 31.5 C-18.72212398 30.88408878 -20.25727009 30.26947672 -21.79296875 29.65625 C-22.50888184 29.37007812 -23.22479492 29.08390625 -23.96240234 28.7890625 C-26.61135335 27.76325257 -29.29413672 26.86311429 -32 26 C-31.875 24.3125 -31.875 24.3125 -31 22 C-29.53859344 20.80845545 -28.07644556 19.61779677 -26.60888672 18.43383789 C-24.03261648 16.13786898 -22.11926638 13.35463542 -20.125 10.5625 C-9.71280342 -3.36167687 -9.71280342 -3.36167687 0 0 Z " fill="#000000" transform="translate(310,161)"/>
<path d="M0 0 C1.06623027 4.22336224 2.09863135 8.45428956 3.125 12.6875 C3.42792969 13.88568359 3.73085937 15.08386719 4.04296875 16.31835938 C4.32011719 17.47529297 4.59726563 18.63222656 4.8828125 19.82421875 C5.27557373 21.41882935 5.27557373 21.41882935 5.67626953 23.0456543 C6.04563152 26.41643063 5.65039175 28.06102082 4 31 C1 33 1 33 -2 32.875 C-5 32 -5 32 -7 30.3125 C-8 28 -8 28 -7.5625 24.9375 C-5.62057814 21.2866869 -3.78488251 20.48104098 0 19 C-0.66 16.03 -1.32 13.06 -2 10 C-2.88042969 10.2165625 -3.76085937 10.433125 -4.66796875 10.65625 C-6.41013672 11.07390625 -6.41013672 11.07390625 -8.1875 11.5 C-9.33605469 11.7784375 -10.48460937 12.056875 -11.66796875 12.34375 C-14.56818829 12.91495385 -17.06096385 13.13283779 -20 13 C-19.80664062 13.54527344 -19.61328125 14.09054688 -19.4140625 14.65234375 C-13.94186683 30.50003912 -13.94186683 30.50003912 -15 37 C-17.1875 39.4375 -17.1875 39.4375 -20 41 C-22.89481608 40.93107581 -24.40685358 40.38861317 -26.8125 38.8125 C-28.60140853 36.08206067 -28.46413104 34.18261281 -28 31 C-26.1875 29.125 -26.1875 29.125 -24 28 C-23.01 28 -22.02 28 -21 28 C-21.64132203 24.87405648 -22.28882273 21.74942478 -22.9375 18.625 C-23.21110352 17.29082031 -23.21110352 17.29082031 -23.49023438 15.9296875 C-23.66748047 15.07890625 -23.84472656 14.228125 -24.02734375 13.3515625 C-24.18968506 12.56604004 -24.35202637 11.78051758 -24.51928711 10.97119141 C-24.93706722 8.94039254 -24.93706722 8.94039254 -26 7 C-22.83045543 3.41732972 -19.21303645 2.80065877 -14.6875 1.8125 C-13.94048828 1.63525391 -13.19347656 1.45800781 -12.42382812 1.27539062 C-8.17903208 0.31015605 -4.37648402 -0.07688998 0 0 Z " fill="#000000" transform="translate(233,84)"/>
<path d="M0 0 C3.33731235 1.57176646 4.9670529 3.68663131 7.234375 6.578125 C8.02457031 7.56683594 8.81476563 8.55554688 9.62890625 9.57421875 C11.421875 12.140625 11.421875 12.140625 11.421875 14.140625 C12.081875 14.140625 12.741875 14.140625 13.421875 14.140625 C13.421875 14.800625 13.421875 15.460625 13.421875 16.140625 C14.081875 16.140625 14.741875 16.140625 15.421875 16.140625 C14.58829066 20.81367395 11.7239579 22.78807702 8.171875 25.640625 C7.59824219 26.11371094 7.02460938 26.58679688 6.43359375 27.07421875 C4.77171973 28.44081675 3.09840221 29.7920697 1.421875 31.140625 C0.49890625 31.8934375 -0.4240625 32.64625 -1.375 33.421875 C-4.911753 36.18104401 -7.08553051 36.58988445 -11.578125 36.140625 C-14.015625 34.453125 -14.015625 34.453125 -15.578125 32.140625 C-15.50831721 29.27850559 -14.95160414 27.71067212 -13.390625 25.328125 C-10.71594506 23.57574849 -8.70383022 23.81503071 -5.578125 24.140625 C-4.588125 24.800625 -3.598125 25.460625 -2.578125 26.140625 C-2.578125 26.800625 -2.578125 27.460625 -2.578125 28.140625 C-2.09601563 27.7075 -1.61390625 27.274375 -1.1171875 26.828125 C-0.48554688 26.27125 0.14609375 25.714375 0.796875 25.140625 C1.42335938 24.58375 2.04984375 24.026875 2.6953125 23.453125 C4.421875 22.140625 4.421875 22.140625 6.421875 22.140625 C5.17501743 20.55481586 3.92424474 18.9720846 2.671875 17.390625 C1.97578125 16.50890625 1.2796875 15.6271875 0.5625 14.71875 C-1.37758397 12.38215252 -3.39324686 10.2467688 -5.578125 8.140625 C-6.15820312 8.66011719 -6.73828125 9.17960938 -7.3359375 9.71484375 C-8.95294124 11.15840649 -10.5756115 12.59564047 -12.203125 14.02734375 C-13.58121847 15.25357495 -14.94453979 16.49770978 -16.265625 17.78515625 C-18.93993529 20.30685644 -20.52899989 21.13300214 -24.203125 21.703125 C-27.578125 21.140625 -27.578125 21.140625 -30.078125 19.453125 C-31.578125 17.140625 -31.578125 17.140625 -31.515625 14.578125 C-30.49485549 11.92412428 -29.95753826 10.69955093 -27.578125 9.140625 C-24.578125 8.765625 -24.578125 8.765625 -21.578125 9.140625 C-19.703125 10.640625 -19.703125 10.640625 -18.578125 12.140625 C-14.02843526 10.25310384 -10.6469728 6.81814516 -7.08789062 3.50976562 C-4.72185348 1.43234293 -3.19787233 0.1744294 0 0 Z " fill="#000000" transform="translate(360.578125,147.859375)"/>
<path d="M0 0 C4.87849732 0.03516034 7.32300141 2.36138378 10.7734375 5.578125 C13.43044027 8.64677609 14.3627767 10.82749031 14.8125 14.875 C14.35927291 19.25619522 13.26666989 21.14966723 10.4375 24.5 C4.28365385 29.24358974 4.28365385 29.24358974 0.4375 29.5 C-1.8125 28.5625 -1.8125 28.5625 -3.5625 27.5 C-3.376875 26.37464844 -3.19125 25.24929687 -3 24.08984375 C-2.39838595 19.28434558 -2.90557893 14.83690847 -3.5625 10.0625 C-3.94220248 7.20795101 -4.27613629 4.36662001 -4.5625 1.5 C-3.5625 0.5 -3.5625 0.5 0 0 Z M2.4375 7.5 C2.7675 12.45 3.0975 17.4 3.4375 22.5 C4.4275 22.5 5.4175 22.5 6.4375 22.5 C8.34007206 20.03370289 9.32610208 18.05698958 9.9375 15 C9.20745334 11.34976668 7.23723813 9.83311511 4.4375 7.5 C3.7775 7.5 3.1175 7.5 2.4375 7.5 Z " fill="#000000" transform="translate(18.5625,25.5)"/>
<path d="M0 0 C2.5 0.1875 2.5 0.1875 5 1 C7.8456159 5.26842385 7.50004005 8.9917864 7 14 C5.365608 18.64511411 3.28811323 21.50691091 -1 24 C-4.0625 24.125 -4.0625 24.125 -7 23 C-10.8093213 18.4699963 -11.53976348 14.87569061 -11.25 9.125 C-11.23195312 8.43664063 -11.21390625 7.74828125 -11.1953125 7.0390625 C-11.14863748 5.3587619 -11.07690939 3.67918837 -11 2 C-9.35 1.67 -7.7 1.34 -6 1 C-3.50881047 4.7367843 -3.7934774 6.74451819 -3.875 11.1875 C-3.89304687 12.45980469 -3.91109375 13.73210938 -3.9296875 15.04296875 C-3.96449219 16.50669922 -3.96449219 16.50669922 -4 18 C-3.01 17.67 -2.02 17.34 -1 17 C0.77882289 11.66353134 0.44723163 7.04741524 -2 2 C-1.34 1.34 -0.68 0.68 0 0 Z " fill="#000000" transform="translate(45,31)"/>
<path d="M0 0 C2.31 0 4.62 0 7 0 C7 0.66 7 1.32 7 2 C7.99 2.33 8.98 2.66 10 3 C11.80162669 5.52227736 12.04839136 6.64513 11.625 9.75 C11.315625 10.86375 11.315625 10.86375 11 12 C10.34 12 9.68 12 9 12 C8.67 12.99 8.34 13.98 8 15 C5.8125 16.375 5.8125 16.375 3 17 C-0.97039551 15.52083305 -2.63056374 14.55415439 -5 11 C-5.33957563 6.92509248 -5.31332486 5.46998729 -3 2 C-2.01 2 -1.02 2 0 2 C0 1.34 0 0.68 0 0 Z " fill="#000000" transform="translate(306,143)"/>
<path d="M0 0 C1.32 0.33 2.64 0.66 4 1 C3.51472594 6.45933319 1.98892143 11.09938087 0.046875 16.21484375 C-1.17093192 19.45475543 -2.24109623 22.72933224 -3.2890625 26.02734375 C-4 28 -4 28 -5.046875 30.08203125 C-6.17455339 32.35125293 -6.58511296 34.51067773 -7 37 C-7.66 37 -8.32 37 -9 37 C-9.33 37.99 -9.66 38.98 -10 40 C-11.32 39.67 -12.64 39.34 -14 39 C-13.67 37.68 -13.34 36.36 -13 35 C-12.34 35 -11.68 35 -11 35 C-11.04125 33.906875 -11.0825 32.81375 -11.125 31.6875 C-11 28 -11 28 -9 25 C-8.50456318 23.34854394 -8.01377233 21.69531672 -7.5625 20.03125 C-5.96289046 14.25488222 -4.20368515 9.09677183 -1 4 C-0.30420546 1.80869466 -0.30420546 1.80869466 0 0 Z " fill="#000000" transform="translate(289,80)"/>
<path d="M0 0 C1.32 0.66 2.64 1.32 4 2 C4.37542662 6.50511945 4.37542662 6.50511945 2.625 8.8125 C0.6479079 11.47397013 0.1822337 13.78482261 -0.53515625 16.98046875 C-1.36760216 20.59706148 -2.58123179 24.03929647 -4.0625 27.4375 C-5.15459644 30.12001205 -5.15459644 30.12001205 -5.4375 33.625 C-6 37 -6 37 -7.3125 38.9375 C-9 40 -9 40 -13 40 C-12.69128878 38.20767663 -12.37790936 36.41615679 -12.0625 34.625 C-11.88847656 33.62726563 -11.71445312 32.62953125 -11.53515625 31.6015625 C-11 29 -11 29 -10 27 C-9.34 27 -8.68 27 -8 27 C-7.855625 25.700625 -7.71125 24.40125 -7.5625 23.0625 C-7.125 19.125 -7.125 19.125 -6 18 C-5.70077614 16.67274963 -5.43599211 15.33767714 -5.1875 14 C-4.13376519 8.98872682 -2.23447918 4.58827522 0 0 Z " fill="#000000" transform="translate(400,160)"/>
<path d="M0 0 C0.66 1.65 1.32 3.3 2 5 C-1 7 -1 7 -5 7 C-5.66 5.35 -6.32 3.7 -7 2 C-4 0 -4 0 0 0 Z " fill="#000000" transform="translate(350,118)"/>
<path d="M0 0 C2.625 0.375 2.625 0.375 5 1 C5.33 2.32 5.66 3.64 6 5 C3 7 3 7 0.8125 6.625 C0.214375 6.41875 -0.38375 6.2125 -1 6 C-1.625 4.125 -1.625 4.125 -2 2 C-1.34 1.34 -0.68 0.68 0 0 Z " fill="#000000" transform="translate(191,68)"/>
<path d="M0 0 C1.32 1.32 2.64 2.64 4 4 C3.67 4.99 3.34 5.98 3 7 C1.35 7.33 -0.3 7.66 -2 8 C-2.66 6.35 -3.32 4.7 -4 3 C-2.68 2.01 -1.36 1.02 0 0 Z " fill="#000000" transform="translate(286,134)"/>
<path d="M0 0 C1.5625 1.25 1.5625 1.25 3 3 C2.6875 5.1875 2.6875 5.1875 2 7 C0.125 7.625 0.125 7.625 -2 8 C-2.66 7.34 -3.32 6.68 -4 6 C-3.625 3.375 -3.625 3.375 -3 1 C-2.01 0.67 -1.02 0.34 0 0 Z " fill="#000000" transform="translate(385,139)"/>
<path d="M0 0 C0.99 0.33 1.98 0.66 3 1 C3.33 2.65 3.66 4.3 4 6 C2.35 6.66 0.7 7.32 -1 8 C-1.99 6.35 -2.98 4.7 -4 3 C-2.1875 1.4375 -2.1875 1.4375 0 0 Z " fill="#000000" transform="translate(300,108)"/>
<path d="M0 0 C0 1.65 0 3.3 0 5 C-1.65 5.33 -3.3 5.66 -5 6 C-7 3 -7 3 -7 0 C-3.86650268 -1.04449911 -3.01031744 -0.93423645 0 0 Z " fill="#000000" transform="translate(188,115)"/>
<path d="M0 0 C1.65 0.33 3.3 0.66 5 1 C5.33 1.99 5.66 2.98 6 4 C5.01 4.99 4.02 5.98 3 7 C1.68 6.34 0.36 5.68 -1 5 C-0.67 3.35 -0.34 1.7 0 0 Z " fill="#000000" transform="translate(208,135)"/>
<path d="M0 0 C2.125 0.9375 2.125 0.9375 4 2 C3.67 3.32 3.34 4.64 3 6 C-0.75 7.125 -0.75 7.125 -3 6 C-2.625 3.5625 -2.625 3.5625 -2 1 C-1.34 0.67 -0.68 0.34 0 0 Z " fill="#000000" transform="translate(333,191)"/>
<path d="M0 0 C1.65 0.33 3.3 0.66 5 1 C5 2.32 5 3.64 5 5 C3.02 5.99 3.02 5.99 1 7 C0.34 6.34 -0.32 5.68 -1 5 C-0.625 2.375 -0.625 2.375 0 0 Z " fill="#000000" transform="translate(257,140)"/>
<path d="M0 0 C0.598125 0.350625 1.19625 0.70125 1.8125 1.0625 C1.8125 2.0525 1.8125 3.0425 1.8125 4.0625 C0.1625 4.7225 -1.4875 5.3825 -3.1875 6.0625 C-5.1875 3.0625 -5.1875 3.0625 -5.1875 0.0625 C-2.1875 -0.9375 -2.1875 -0.9375 0 0 Z " fill="#000000" transform="translate(271.1875,80.9375)"/>
</svg>
