<?xml version="1.0" encoding="UTF-8"?>
<svg version="1.1" xmlns="http://www.w3.org/2000/svg" width="100" height="100">
<path d="M0 0 C3.11447917 1.71687923 5.38455031 3.76910063 7 7 C6.93731998 8.79492776 6.80228756 10.58774972 6.625 12.375 C6.48964844 13.80972656 6.48964844 13.80972656 6.3515625 15.2734375 C6 18 6 18 5.46484375 19.9609375 C4.82922659 22.74910689 4.90646679 25.39494439 4.9375 28.25 C4.94652344 29.32765625 4.95554688 30.4053125 4.96484375 31.515625 C4.97644531 32.33546875 4.98804688 33.1553125 5 34 C8.40614941 35.97022368 11.64755694 36.56080147 15.5 37.25 C22.61486486 38.79115479 22.61486486 38.79115479 24.8125 42.1875 C26 45 26 45 25 47.875 C23 51 23 51 19.5625 52.375 C14.94562212 53.2417373 10.31611955 53.11046191 5.63671875 52.97265625 C2.88990632 52.86649062 2.88990632 52.86649062 0 54 C-0.04487549 54.56396484 -0.08975098 55.12792969 -0.13598633 55.70898438 C-0.34957223 58.30712522 -0.58092152 60.90340346 -0.8125 63.5 C-0.88275391 64.386875 -0.95300781 65.27375 -1.02539062 66.1875 C-1.55472195 71.94662482 -2.55211134 76.73674302 -5 82 C-8 84 -8 84 -11.375 83.875 C-16.40675918 82.66043744 -18.87281295 80.80733885 -21.60546875 76.42578125 C-23.35144595 72.13664398 -23.48398592 68.45872692 -23.5625 63.875 C-23.37130841 57.02441445 -23.37130841 57.02441445 -26 51 C-29.98492864 48.75264385 -33.80578571 48.71441172 -38.3125 48.5625 C-44.08316962 48.26789914 -48.87925985 47.81138675 -54 45 C-55.5 42.3125 -55.5 42.3125 -56 40 C-53.86185758 37.12456709 -52.3771633 35.35555853 -48.8515625 34.4453125 C-41.92206694 33.74170218 -34.88968383 33.93370707 -27.9309082 34.03588867 C-25.95403696 34.05893702 -23.97671557 34.03386237 -22 34 C-20.7447656 32.97169992 -20.7447656 32.97169992 -20.91821289 30.76269531 C-20.94516235 29.31008301 -20.94516235 29.31008301 -20.97265625 27.828125 C-20.98490234 26.77109375 -20.99714844 25.7140625 -21.00976562 24.625 C-21.04467881 22.39055631 -21.08368328 20.15617248 -21.12695312 17.921875 C-21.13791016 16.8596875 -21.14886719 15.7975 -21.16015625 14.703125 C-21.17699463 13.73020508 -21.19383301 12.75728516 -21.21118164 11.75488281 C-20.87233062 7.33454186 -19.82310102 4.75978556 -16.5625 1.75 C-11.25804106 -1.87255733 -6.08033316 -1.29239606 0 0 Z " fill="#000000" transform="translate(64,9)"/>
</svg>
