<?xml version="1.0" encoding="UTF-8"?>
<svg version="1.1" xmlns="http://www.w3.org/2000/svg" width="100" height="100">
<path d="M0 0 C3.2262505 1.63738277 5.35978168 3.71956336 7 7 C7.06055279 8.53659479 7.06032573 10.07584756 7.02734375 11.61328125 C7.00897461 12.9909668 7.00897461 12.9909668 6.99023438 14.39648438 C6.95528863 16.32885488 6.91627582 18.26115643 6.87304688 20.19335938 C6.69295969 26.85365501 6.69295969 26.85365501 9 33 C11.89513378 34.44756689 14.58798922 34.15545937 17.8125 34.25 C25.71541607 34.76875552 25.71541607 34.76875552 28.375 37.25 C30.17370347 40.29395971 30.88146527 41.56228546 30 45 C24.6665546 50.49031145 18.46244001 51.21263703 11.171875 51.75390625 C8.9555274 51.87904151 8.9555274 51.87904151 7 53 C7.01571045 53.95253662 7.01571045 53.95253662 7.03173828 54.92431641 C7.07352467 57.8245034 7.09939771 60.72462682 7.125 63.625 C7.14175781 64.62402344 7.15851563 65.62304688 7.17578125 66.65234375 C7.22013817 73.35023873 6.80420033 78.2936995 3 84 C-0.81268378 85.52507351 -3.40453591 84.77272036 -7.15625 83.27734375 C-13.36120384 78.97857277 -14.95450599 73.96551631 -16.25 66.875 C-16.56770024 65.28906088 -16.88540831 63.70312333 -17.203125 62.1171875 C-17.33364258 61.42222168 -17.46416016 60.72725586 -17.59863281 60.01123047 C-18.00236877 57.9881302 -18.48406663 55.99714337 -19 54 C-19.89924194 54.00785522 -19.89924194 54.00785522 -20.81665039 54.01586914 C-23.56525602 54.03681443 -26.31384478 54.04971556 -29.0625 54.0625 C-30.00544922 54.07087891 -30.94839844 54.07925781 -31.91992188 54.08789062 C-45.37887723 54.13478594 -45.37887723 54.13478594 -49.5 51.25 C-51 49 -51 49 -51.0625 46.4375 C-49.65514874 43.20887064 -48.09272127 42.61397302 -45 41 C-36.29459677 38.04121491 -27.08935012 37.05545732 -18 36 C-17.85463051 31.2028068 -18.28468038 27.13621927 -19.5 22.5 C-22.18540027 11.28299312 -22.18540027 11.28299312 -19.3125 5.75 C-13.94472135 -0.63330434 -7.95637955 -1.18270507 0 0 Z " fill="#000000" transform="translate(62,9)"/>
</svg>
